<svg width="337" height="114" viewBox="0 0 337 114" fill="none" xmlns="http://www.w3.org/2000/svg">
<path d="M20.4852 13.5446C29.7686 5.9245 40.4925 1.47446 52.4189 0.196834C53.2769 0.0509576 53.9234 0.0485532 54.7782 0.212063C55.7219 1.89766 55.0217 45.8178 55.0025 52.1995C50.1589 46.6698 45.2151 41.2283 40.1729 35.8781C33.739 28.3214 26.7187 21.2656 20.4844 13.5446H20.4852Z" fill="#E4EEFB"/>
<path d="M58.3799 54.9571C58.585 36.6383 58.6611 18.3196 58.6058 0C69.1606 0.309387 79.4543 3.36478 88.4702 8.86482C101.783 17.1421 110.81 31.1575 114.239 46.3255C114.641 48.1009 115.233 50.4125 114.218 52.0115L112.673 52.0997L58.3799 54.9571Z" fill="#E4EEFB"/>
<path d="M133.454 47.0298L133.353 38.4097L334.99 38.3037C335.338 38.6537 335.58 38.9028 335.761 39.3058C336.646 41.2797 336.66 44.9549 334.96 46.7277C332.278 47.6911 153.613 47.1913 133.452 47.0298H133.454Z" fill="#E4EEFB"/>
<path d="M60.0531 113.537L58.6447 113.563C42.8481 113.777 28.2716 108.802 16.8379 97.6078C6.2246 87.1367 0.173689 72.8937 0.0030489 57.979C-0.164387 41.3258 6.57309 27.2295 18.0757 15.5C25.9932 24.8866 34.3417 34.0151 42.5693 43.1348C46.4748 47.4631 51.1654 51.8297 54.4404 56.6268C58.4476 62.4972 60.9311 70.518 63.6926 77.068C68.3568 88.1322 73.1883 99.1115 77.7131 110.235C71.917 112.091 66.1 113.006 60.0539 113.536L60.0531 113.537Z" fill="#E4EEFB"/>
<path d="M133.398 60.9495L133.353 52.3866L199.215 52.3037C199.311 55.1009 199.308 57.9013 199.353 60.6985C193.03 61.8771 144.036 60.9758 133.398 60.9495Z" fill="#E4EEFB"/>
<path d="M207.368 61.1171L207.353 52.3225L334.978 52.3037C335.334 52.6632 335.577 52.9328 335.766 53.3405C336.706 55.3374 336.57 58.9479 334.962 60.765C333.007 61.7094 220.724 61.1269 207.367 61.1171H207.368Z" fill="#E4EEFB"/>
<path d="M133.434 74.1763L133.353 65.3037L261.84 65.423C262.193 65.7701 262.493 66.0719 262.673 66.4718C263.476 68.2985 263.777 71.9245 262.387 73.5947C260.082 74.6954 148.545 74.1892 133.432 74.1771L133.434 74.1763Z" fill="#E4EEFB"/>
<path d="M269.353 74.1113C269.483 73.984 269.621 73.86 269.744 73.7287C271.456 71.871 270.712 67.6609 269.76 65.6839C276.717 65.0004 284.688 65.4462 291.782 65.4502L334.852 65.4927C335.229 65.8488 335.489 66.1098 335.69 66.5164C336.664 68.4677 336.695 72.1327 334.891 73.88C332.395 74.6643 277.123 74.1217 269.353 74.1105V74.1113Z" fill="#E4EEFB"/>
<path d="M133.47 78.4808C169.729 78.3968 205.99 78.4701 242.244 78.7025C257.146 78.667 272.117 78.4355 287.003 78.742C302.329 78.4553 320.094 79.5082 335.035 78.3037C336.478 80.3675 336.886 84.2794 335.496 86.4025C335.323 86.6686 335.164 86.7939 334.906 87.0476C319.49 87.0806 303.522 87.6054 288.16 87.0501C272.336 87.3022 256.451 87.1078 240.62 87.0872L133.354 87.2C133.339 84.295 133.431 81.3859 133.471 78.4808H133.47Z" fill="#E4EEFB"/>
<path d="M59.665 58.6445C75.5121 58.5548 91.5451 57.1417 107.383 56.365C109.938 56.2143 112.521 56.2151 115.081 56.1494C115.088 63.5026 114.085 71.1659 111.259 77.9949C105.699 91.434 95.0772 103.062 81.567 108.651C80.016 105.915 78.7479 102.951 77.3892 100.111C74.8977 95.1105 73.1143 89.7981 70.9177 84.6667C67.198 75.9758 63.2701 67.3891 59.6658 58.6445H59.665Z" fill="#E4EEFB"/>
</svg>
