<svg width="46" height="48" viewBox="0 0 46 48" fill="none" xmlns="http://www.w3.org/2000/svg">
	<g clip-path="url(#clip0_1794_49974)">
		<path d="M9.05575 42.8C5.40941 42.8 2.42422 39.84 2.42422 36.18V14.6C2.42422 10.96 5.38937 7.98001 9.05575 7.98001H26.1254L27.1071 5.54001H9.05575C6.65218 5.54531 4.34886 6.50218 2.65115 8.20068C0.953439 9.89919 -5.8564e-06 12.2006 0 14.6L0 36.18C0 41.16 4.06707 45.22 9.05575 45.22H9.13589V42.78H9.05575V42.8ZM46 14.6C46 10.36 43.0749 6.82001 39.1281 5.84001L38.2666 8.14001C41.2718 8.76001 43.5558 11.42 43.5558 14.62V42.82H24.9033C24.4425 43.68 23.9617 44.5 23.4408 45.26H46V14.6Z" fill="#A4286A"/>
		<path d="M31.8557 0L21.6579 28.28L16.6492 12.6H10.5186L18.1919 32.24C18.8931 34.06 18.8931 36.08 18.1919 37.9C17.4506 39.8 16.1283 42.06 12.4619 42.74H12.3017V47.98H12.522C15.5874 47.86 17.9515 46.84 19.995 44.8C22.0586 42.72 23.8417 39.5 25.5848 34.64L38.5072 0H31.8557Z" fill="#A4286A"/>
	</g>
	<defs>
		<clipPath id="clip0_1794_49974">
			<rect width="46" height="48" fill="white"/>
		</clipPath>
	</defs>
</svg>