<svg xmlns="http://www.w3.org/2000/svg" xmlns:xlink="http://www.w3.org/1999/xlink" width="128" height="128" viewBox="0 0 128 128">
    <defs>
        <path d="M24.556 7.222h-3.51C19.558 3.012 15.549 0 10.833 0 4.853 0 0 4.853 0 10.833s4.853 10.834 10.833 10.834h13.723a7.225 7.225 0 0 0 7.222-7.223 7.225 7.225 0 0 0-7.222-7.222z" id="a"/>
        <linearGradient x1="49.994%" y1=".226%" x2="49.994%" y2="99.725%" id="c">
            <stop stop-color="#212121" stop-opacity=".04" offset="0%"/>
            <stop stop-color="#212121" stop-opacity="0" offset="66%"/>
        </linearGradient>
        <path d="M13.722 0H0v14.444h13.722a7.225 7.225 0 0 0 7.222-7.222A7.225 7.225 0 0 0 13.722 0z" id="d"/>
        <radialGradient cx="10.128%" cy="14.269%" fx="10.128%" fy="14.269%" r="144.566%" gradientTransform="matrix(.68182 0 0 1 .032 0)" id="f">
            <stop stop-color="#FFF" stop-opacity=".1" offset="0%"/>
            <stop stop-color="#FFF" stop-opacity="0" offset="100%"/>
        </radialGradient>
        <linearGradient x1="36.626%" y1="20.358%" x2="64.01%" y2="100.652%" id="g">
            <stop stop-color="#FFF" stop-opacity=".1" offset="0%"/>
            <stop stop-color="#FFF" stop-opacity="0" offset="100%"/>
        </linearGradient>
        <linearGradient x1="68.935%" y1="65.756%" x2="31.065%" y2="35.799%" id="h">
            <stop stop-color="#262626" stop-opacity=".1" offset="0%"/>
            <stop stop-color="#262626" stop-opacity="0" offset="100%"/>
        </linearGradient>
        <linearGradient x1="62.531%" y1="13.086%" x2="24.779%" y2="100.996%" id="i">
            <stop stop-color="#262626" stop-opacity=".1" offset="0%"/>
            <stop stop-color="#262626" stop-opacity="0" offset="100%"/>
        </linearGradient>
        <linearGradient x1="0%" y1="50%" y2="50%" id="j">
            <stop stop-color="#262626" stop-opacity=".1" offset="0%"/>
            <stop stop-color="#262626" stop-opacity="0" offset="100%"/>
        </linearGradient>
        <radialGradient cx="14.489%" cy="14.584%" fx="14.489%" fy="14.584%" r="99.973%" id="k">
            <stop stop-color="#FFF" stop-opacity=".1" offset="0%"/>
            <stop stop-color="#FFF" stop-opacity="0" offset="100%"/>
        </radialGradient>
        <path d="M28.333 8.333h-4.05C22.567 3.475 17.942 0 12.5 0 5.6 0 0 5.6 0 12.5S5.6 25 12.5 25h15.833c4.6 0 8.334-3.733 8.334-8.333s-3.734-8.334-8.334-8.334z" id="l"/>
        <linearGradient x1="49.994%" y1=".226%" x2="49.994%" y2="99.725%" id="n">
            <stop stop-color="#212121" stop-opacity=".04" offset="0%"/>
            <stop stop-color="#212121" stop-opacity="0" offset="66%"/>
        </linearGradient>
        <path d="M15.833 0H0v16.667h15.833c4.6 0 8.334-3.734 8.334-8.334S20.433 0 15.833 0z" id="o"/>
        <radialGradient cx="10.128%" cy="14.269%" fx="10.128%" fy="14.269%" r="144.566%" gradientTransform="matrix(.68182 0 0 1 .032 0)" id="q">
            <stop stop-color="#FFF" stop-opacity=".1" offset="0%"/>
            <stop stop-color="#FFF" stop-opacity="0" offset="100%"/>
        </radialGradient>
    </defs>
    <g fill="none">
        <path d="M0 0h128v128H0z"/>
        <g transform="translate(5.333 5.333)">

            <path d="M71.333 26.667H106v34.667H71.333z"/>


            <path fill="#FFF176" fill-rule="nonzero" d="M42.667 24.667h30.667v26.667H42.667z"/>
            <path fill="#FFF" fill-rule="nonzero" d="M39.333 65.333H76V102H39.333z"/>
            <path d="M80 48.667h5.333v10.666H32V48.667h5.333V27.333L58.667 14 80 27.333v21.334zm-10.667 0V33.245L58.667 26.58 48 33.245v15.422h21.333z" fill="#F4481E" fill-rule="nonzero"/>
            <path d="M29.631 109.656l9.036-60.99h40l9.035 60.99c-8.561 4.886-18.472 7.677-29.035 7.677-10.563 0-20.474-2.791-29.036-7.677zM70.61 67.067l-25.094 8.154-3.05 20.585L73.38 85.76l-2.77-18.694z" fill="#F4481E" fill-rule="nonzero"/>
            <path d="M79.949 59.333l7.455 50.323c-8.561 4.886-18.472 7.677-29.035 7.677-10.563 0-20.474-2.791-29.036-7.677l7.456-50.323H32V48.667h5.333V27.333L58.667 14 80 27.333v21.334h5.333v10.666H79.95z" fill="url(#g)" fill-rule="nonzero"/>
            <path fill="url(#h)" fill-rule="nonzero" d="M58.667 48.667H37.333V27.333L58.667 14z"/>
            <path d="M58.667 117.333a58.62 58.62 0 0 1-29.036-7.677l6.685-50.323h22.35v58z" fill="url(#i)" fill-rule="nonzero"/>
            <path fill="url(#j)" fill-rule="nonzero" transform="matrix(-1 0 0 1 90.667 0)" d="M32 48.667h26.667v10.667H32z"/>






        </g>
    </g>
</svg>