<svg xmlns="http://www.w3.org/2000/svg" fill="none" viewBox="0 0 43 47">
  <path stroke="currentColor" stroke-linecap="round" stroke-linejoin="round" stroke-width="1.5" d="M13 1H3.3A2.5 2.5 0 0 0 1 3.5v12.7h4.2c.5 0 1 .5.9 1l-.2 2v1c.3 1 1.3 1.9 2.5 1.9a2.5 2.5 0 0 0 2.4-3l-.2-1.8c0-.6.4-1 .9-1h4.2m14.7 7.9V19"/>
  <path stroke="currentColor" stroke-linecap="round" stroke-linejoin="round" stroke-width="1.5" d="M15.7 16.2v4.4c0 .6.5 1 1 1l1.9-.3h1c1 .3 1.8 1.4 1.8 2.6 0 1.2-.8 2.2-1.9 2.5h-1l-1.8-.2a1 1 0 0 0-1 1v4.3h7.1"/>
  <path stroke="currentColor" stroke-linecap="round" stroke-linejoin="round" stroke-width="1.5" d="M1 16.2V29c0 1.4 1 2.5 2.4 2.5h12.3m0-30.5v4.5c0 .5-.4 1-1 .9L13 6l-1 .1c-1 .3-1.8 1.3-1.8 2.5s.7 2.2 1.8 2.5h1l1.8-.1c.6-.1 1 .3 1 .9v4.3H20c.6 0 1-.4 1-1l-.3-1.9v-1c.3-1 1.3-1.9 2.5-1.9a2.5 2.5 0 0 1 2.5 3l-.3 1.8c0 .6.4 1 1 1h4.1V3.6c0-1.4-1-2.5-2.4-2.5H15.7Zm14.1 32.2-.9-3.5c-.2-1 .3-2 1.3-2.2.9-.3 1.9.3 2.1 1.3l.3 1"/>
  <path stroke="currentColor" stroke-linecap="round" stroke-linejoin="round" stroke-width="1.5" d="m33.2 32.3-.6-2.4c-.2-1 .3-2 1.3-2.3 1-.2 1.9.4 2.1 1.3l.6 2.4"/>
  <path stroke="currentColor" stroke-linecap="round" stroke-linejoin="round" stroke-width="1.5" d="M36.3 30.1c-.2-.8.3-1.6 1-1.8h0c1.2-.3 2.3.4 2.6 1.6l2 7.6a9 9 0 0 1 0 4s0 0 0 0a4.2 4.2 0 0 1-3 3.1L34 46c-1.8.5-3.7 0-5-1.1l-2.6-2.6c-1.7-1.7-3-3-5.1-4-.7-.2-1.2-.8-1.2-1.6 0-1 .7-1.5 1.8-1.7 2.7-.4 5.2 2 5.2 2L24 26a2 2 0 0 1 1.3-2.4c1-.3 2 .4 2.3 1.4l1.2 4.7"/>
</svg>
