<svg xmlns="http://www.w3.org/2000/svg" fill="none" viewBox="0 0 53 61">
  <path stroke="currentColor" stroke-linecap="round" stroke-linejoin="round" stroke-width="1.5" d="M12.3 19.4c0 2 1.6 3.5 3.4 3.5 1.9 0 3.4-1.6 3.4-3.5 0-2-1.5-3.6-3.4-3.6a3.5 3.5 0 0 0-3.4 3.6Zm10.4 13.5v-3.3c0-2-1.6-3.6-3.7-3.6h-6.6c-2 0-3.7 1.6-3.7 3.6V33m3.4-2.8V33m7.2-2.8V33m20.3-22.7h2c1.5 0 2.7 1.3 2.7 2.8v8.6"/>
  <path stroke="currentColor" stroke-linecap="round" stroke-linejoin="round" stroke-width="1.5" d="M13.9 10.3H3.7A2.7 2.7 0 0 0 1 13.1v26c0 1.5 1.2 2.7 2.7 2.7h19.8m-6.4.2v7.3m6.4 0h-9.7m19.4-20.7c0 3.3 2.5 6 5.6 6 3 0 5.5-2.7 5.5-6s-2.5-6-5.5-6-5.6 2.7-5.6 6Zm-7.5 24.7v-8.6c0-3.7 3-6.7 6.7-6.7h12.7c3.7 0 6.7 3 6.7 6.7v8.6"/>
  <path stroke="currentColor" stroke-linecap="round" stroke-linejoin="round" stroke-width="1.5" d="M31.3 53.3v-6.8m14.9 6.8v-6.8M1 35.8h24.8M33.7 1h-14a3.3 3.3 0 0 0-3.2 3.4V10c0 1.9 1.4 3.4 3.2 3.4h2.6v4.2l5-4.2h6.4c1.8 0 3.2-1.5 3.2-3.4V4.4A3.2 3.2 0 0 0 33.7 1h0Z"/>
</svg>
