<svg xmlns="http://www.w3.org/2000/svg" fill="none" viewBox="0 0 45 47">
  <path stroke="currentColor" stroke-linecap="round" stroke-linejoin="round" stroke-width="1.5" d="M40.6 25.7 39 27.4M40.6 42 39 40.1M24.4 42l1.7-1.8m-1.7-14.5 1.7 1.7m6.4-5.3v2.7m11.8 9h-2.7m-20.8 0h2.6m9.1-6.5c-3.4 0-6.9 3-6.6 6.9.1 1.4.8 2.9 1.6 4 2 2.4 1.8 2.1 1.8 3.3h6.4c0-1.2-.2-1 1.8-3.4.9-1 1.5-2.5 1.6-4 .3-3.9-3.1-6.8-6.6-6.8Zm-3.2 14.2v1.2a3.2 3.2 0 1 0 6.4 0v-1.2M9.7 4.8H1V41h20.4m2.4-36.2h8.7v14.7"/>
  <path stroke="currentColor" stroke-linecap="round" stroke-linejoin="round" stroke-width="1.5" d="M21.2 3.4H20a3.3 3.3 0 0 0-6.3 0h-1.3a3.1 3.1 0 0 0-3.1 3.1v2.3h15.1V6.5a3 3 0 0 0-3-3h0Zm-6 13.2h10m-16.9 0 1.1 1.6 3.1-3.3m2.7 8.2h10m-16.9 0 1.1 1.7 3.1-3.3m8.5 8.2h-5.8m-6.9 0 1.1 1.7 3.1-3.4"/>
</svg>
