<svg xmlns="http://www.w3.org/2000/svg" fill="none" viewBox="0 0 127 101">
  <path fill="#DFDDE6" d="M19.2 89.7s15.4 13.8 37.3 10.9c21.9-3 39-19.7 53.3-32.8 14.3-13.2 16.7-31.5 6.2-44.6-10.4-13-24.1-5.7-43.3-12.9-19.2-7.2-23.1-12-43.2-7.7S-3.8 31.1 1 54.9a62.7 62.7 0 0 0 18.2 34.8Z" opacity=".1"/>
  <path fill="#000" d="M15.3 75.3a.4.4 0 1 0 0-.8.4.4 0 0 0 0 .8Zm9.5-.6a.6.6 0 1 0 0-1.3.6.6 0 0 0 0 1.3Zm-3.2-6.8a.4.4 0 1 0 0-1 .4.4 0 0 0 0 1Zm4.2-1.2a.3.3 0 1 0 0-.7.3.3 0 0 0 0 .7Zm-11.1-4.2a.2.2 0 1 0 0-.4.2.2 0 0 0 0 .4Zm4.5-8.1a.2.2 0 1 0 0-.4.2.2 0 0 0 0 .4Zm9.5 2a.1.1 0 1 0 0-.3.1.1 0 0 0 0 .3ZM23 68.3a.3.3 0 1 0 0-.6.3.3 0 0 0 0 .6Zm-6.3-.3a.2.2 0 1 0 0-.5.2.2 0 0 0 0 .5Zm87.9-22.5a.4.4 0 0 0 0-.8.4.4 0 0 0 0 .8Zm9.4-.6a.6.6 0 1 0 0-1.3.6.6 0 0 0 0 1.3Zm-3.1-6.9a.4.4 0 1 0 0-.8.4.4 0 0 0 0 .8Zm4.2-1.2a.3.3 0 1 0 0-.7.3.3 0 0 0 0 .7ZM104 32.7a.2.2 0 1 0 0-.4.2.2 0 0 0 0 .4Zm4.5-8.2a.2.2 0 1 0 0-.3.2.2 0 0 0 0 .3Zm9.5 2.1a.1.1 0 0 0 0-.3s-.2 0-.2.2l.2.1Zm-5.7 11.8a.3.3 0 0 0 0-.5.3.3 0 0 0 0 .5Zm-6.3-.2a.2.2 0 0 0 0-.5c-.2 0-.3.1-.3.2 0 .2.1.3.2.3Zm18.2 40.6a.3.3 0 0 1-.4-.4c0-.8.5-1.2 1-1.6.3-.3.6-.6.6-1.1 0-.6-.3-.9-.7-1.2-.4-.4-.9-.8-.9-1.6 0-.9.5-1.3 1-1.7.3-.3.6-.6.6-1.1 0-.6-.3-.9-.7-1.2-.4-.4-.9-.8-.9-1.6a.3.3 0 1 1 .7 0c0 .5.3.8.6 1.1.5.4 1 .8 1 1.7 0 .8-.5 1.2-1 1.6-.3.3-.6.6-.6 1.2 0 .5.3.8.6 1.1.5.4 1 .8 1 1.7 0 .8-.5 1.2-1 1.6-.3.3-.6.6-.6 1.1 0 .2-.2.4-.3.4ZM75.9 7H35.6a2 2 0 0 0-2 2v74.4c0 1 .9 2 2 2h40.3c1 0 2-1 2-2V9c0-1-1-2-2-2ZM75 77.8c0 .3-.2.5-.5.5H36.9a.5.5 0 0 1-.5-.5v-67c0-.3.3-.6.5-.6h37.6c.3 0 .5.3.5.5v67Z"/>
  <path fill="#fff" d="M37 10.1h37.5c.3 0 .5.3.5.5v67c0 .4-.2.6-.5.6H36.9a.5.5 0 0 1-.5-.5v-67c0-.3.3-.6.5-.6Z"/>
  <path fill="#DFDDE6" d="M88.8 84.3h5.7a11 11 0 0 1-4.9 4.7 11.2 11.2 0 0 0 7.3-4.7h25v-23h-33v23Z"/>
  <path fill="#fff" d="M87.7 83.2h5.7a11 11 0 0 1-4.9 4.7 11.2 11.2 0 0 0 7.3-4.7h25V60h-33v23Z"/>
  <path stroke="#000" stroke-linecap="round" stroke-miterlimit="10" stroke-width=".3" d="M87.7 83.2h5.7a11 11 0 0 1-4.9 4.7 11.2 11.2 0 0 0 7.3-4.7h25V60h-33v23h0Z"/>
  <path fill="#fff" d="M70.4 15.6a11 11 0 0 0 2.4 5c1.4 1.9 3 3.2 4.2 3.7.7.2 1.3.2 1.6 0 1.2-1 .3-3.9-1.8-6.7-2.2-2.8-4.8-4.4-5.9-3.6-.4.3-.5.9-.5 1.6Zm1-1h.7a3.4 3.4 0 0 1 .7.4 7.5 7.5 0 0 1 .7.4l.3.2.3.3a13.8 13.8 0 0 1 2.6 3l.1.2.2.2.1.2.2.3a11.7 11.7 0 0 1 .4 1l.1.2a4.9 4.9 0 0 1 .3.9 14.5 14.5 0 0 0 .1.2v.1a4.7 4.7 0 0 1 .1.5v.5a.7.7 0 0 1 0 .2l-.1.1v.1h-.4a1.4 1.4 0 0 1-.6 0v-.1h-.1l-.1-.1a3.8 3.8 0 0 1-.6-.3h-.1l-.8-.6v-.1l-.2-.1-.2-.2-.2-.2-.3-.3-.1-.1-.6-.6-.2-.2c0-.2-.2-.3-.3-.4v-.1l-.2-.3-.2-.2-.1-.2-.6-.9-.3-.5-.1-.3-.3-.6V17l-.3-.6c-.3-1-.2-1.6 0-1.7Z"/>
  <path fill="#fff" d="M71.4 16.4a7 7 0 0 0 .3.7v.1a11.8 11.8 0 0 0 .6 1.3l.1.1.6 1 .1.1.2.2.1.3h.1l.3.5.2.2.6.6v.1h.1l.3.3a14.6 14.6 0 0 0 .5.5h.1c.3.3.5.5.8.6a4 4 0 0 0 .7.4h.1l.1.1h.1l.6.1h.2v-.2l.1-.1v-.5a4 4 0 0 0 0-.6l-.1-.1v-.2l-.2-.6-.1-.2V21l-.2-.3a32 32 0 0 0-.4-1l-.2-.2-.1-.2-.2-.2-.1-.3a16.4 16.4 0 0 0-2.3-2.6l-.2-.3H74l-.2-.2h-.1l-.3-.2-.3-.3H73l-.2-.2-.2-.1-.5-.2a1 1 0 0 0-.6 0c-.2 0-.4.6 0 1.7Zm2.7 2V18h.1c.3-.2.9 0 1.3.7l.2.3v.3h.1v.6l-.1.2c-.3.2-.9-.1-1.3-.7l-.1-.3-.1-.1v-.2l-.1-.1v-.1Z"/>
  <path fill="#DFDDE6" d="M74.4 19.3c.4.6 1 1 1.3.7.3-.2.2-.8-.2-1.4-.4-.6-1-1-1.3-.8-.3.2-.2.9.2 1.5Z"/>
  <path fill="#000" d="M74.2 17.9s-.9.7-1.9.6l1.9-.6Zm1.5 2.1s-.9 1-1 1.6l1-1.6Z"/>
  <path fill="#fff" d="m62.5 25.7.2.6v.1l2.1 2.6.6.2c.4 0 .6-.2.7-.2a50.6 50.6 0 0 1 4-3 4.3 4.3 0 0 1-2.6-2.5l-.7-1.7a43 43 0 0 1-4.1 3.3l-.2.6Z"/>
  <path fill="#000" d="M66.8 21.8a9.5 9.5 0 0 0 1.7 3.2c.3.2.8.7 1.6 1l.6-.4 2.7-1a16.3 16.3 0 0 1 3.6-.3c-1.2-.5-2.8-1.8-4.2-3.7a11 11 0 0 1-2.4-5 9.7 9.7 0 0 1-3.3 5.9l-.3.3Z"/>
  <path fill="#DFDDE6" d="m62.3 27.8 1.2 1.5.4.2h.1c.2 0 .3 0 .4-.2.2 0 .3-.2.4-.3l-2-2.6-.4.4-.3.4.2.6Zm3.8 1.2.5.5h.4l2.3-.9a1.3 1.3 0 0 0 .5-.3c.2-.2.2-.5.1-.7a13.5 13.5 0 0 1-.4-1.3 52.5 52.5 0 0 0-3.4 2.6Z"/>
  <path fill="#000" d="m67 29.5.1.5c.3 1 .7 1.6 1.2 2.3a25.7 25.7 0 0 0 1.3-2.3l.4-.8-.3-.8-.4.2-2.3 1Z"/>
  <path fill="#fff" d="m47.8 35.8.3.4c.6.7 1.4 1.3 2.4 1.7 2 .8 4.7.7 6-.1.5-.3.7-.6.9-1 0-.2.2-.8-.2-1.7l-1.1-.2v-.2c-2.8 0-3-2.7-3-2.7.4.4 1 .6 1.5.8l1.4.2c.4 0 .8-.2 1.1-.4.7-.5 1-1.4 1-2.2l-.3-2.4a35 35 0 0 0-.6-2.6 9 9 0 0 1-4.5 0 3.3 3.3 0 0 1-.5 2.9c-.3-.2-.7-.5-1.2-.6-.3 0-.6 0-.8.3-.6.6.1 1.3.7 1.6.4.2.7.2 1 .2l-.4 1a3 3 0 0 1-1.2 1.2 13 13 0 0 1-1.7 3.5l-.8.3Zm-8.5 17.5a9.6 9.6 0 0 0 3 2.5c3.6 2 8.1 2 12 .8a16 16 0 0 0 5.4-3 24 24 0 0 0 4.7-5.8 18.8 18.8 0 0 1-11.1 7.5c-2.7.6-7.8 1.8-12.5-1l-1.5-1Z"/>
  <path fill="#66A8F7" d="M37.9 50.6a9 9 0 0 0 1.4 2.7l1.5 1c4.7 2.8 9.8 1.6 12.5 1a18.9 18.9 0 0 0 12-8.7c0-.1 0-.2.2-.3v-.1l.3-.4.3-.6 3.6-5.9.1-.3a27 27 0 0 1-5-2.8l-.6-.4a31.1 31.1 0 0 1-1.3 1.4c-2-1.1-4-1.8-5.7-2 .4.8.3 1.4.2 1.6-.2.4-.4.7-.8 1-1.4.8-4 .9-6 0a6.7 6.7 0 0 1-2.8-2c-2 .8-4.6 2.1-6.8 4.5-2.5 2.7-4.3 6.6-3.1 10.3Z"/>
  <path fill="#66A8F7" d="M38.8 69.5a81.6 81.6 0 0 0 12.3.2 73.6 73.6 0 0 0 18-3.5 59.5 59.5 0 0 1-3-21l-.3.5v.1l-.3.3v.1l-2 3a24 24 0 0 1-3.8 4.4 14.8 14.8 0 0 1-5.4 3 15.7 15.7 0 0 1-12.5-1 195.6 195.6 0 0 1-3 14Z"/>
  <path fill="#fff" d="m66 48.8.1 1.7a48.4 48.4 0 0 0 20-2.3c-.2 0-13 2.7-20 .6Z"/>
  <path fill="#66A8F7" d="M66 48.8c7 2.1 19.9-.6 20-.6l3.2-1.2a46.6 46.6 0 0 1-2.1-6.2 23.4 23.4 0 0 1-17.4-1.5l-3.6 6v3.5Z"/>
  <path fill="#000" d="M40.1 78.2h30l-.4-1c-.7-2.8-1.7-6.3-3-10.3a73.7 73.7 0 0 1-25.6 2.8l-1 8.5ZM53 32s.3 2.6 3 2.7a17 17 0 0 1 0-1.7c-.5 0-1 0-1.4-.2-.6-.2-1.1-.4-1.6-.8Zm-5.1-5.2c0 1 .4 1.8.5 2.2l1.2 1.9a63 63 0 0 0 .7 1.1h.1a3 3 0 0 0 1.1-1.3c.2-.3.3-.7.3-1l-1-.1c-.5-.3-1.1-1-.6-1.6.2-.2.5-.3.8-.3.5.1 1 .4 1.2.6a3.2 3.2 0 0 0 .6-2.9 9 9 0 0 0 4.7-.1 2 2 0 0 0 1.2-1.2c.5-1 0-2.3-1-2.8-.5-.3-1-.3-1.2-.3-.8 0-1.3.4-1.5.6a2 2 0 0 0-1-.3c-.1 0-.6 0-1 .3-.6.4-.6 1-.6 1.1-1.2 0-2 .5-2.5.7-.5.3-1 .5-1.5 1.1-.5.8-.5 1.7-.5 2.3Z"/>
  <path fill="#fff" d="M87.5 42.2a48.2 48.2 0 0 0 1.3 4l2.6.2a4 4 0 0 0 2.3-.5l.8-.6c.3 0 2.1.5 3 0 .1 0 .4-.2.4-.4v-.5c.1 0 .3 0 .5-.2s.2-.6.2-.6c0-.3-.1-.5-.3-.6.2-.2.3-.3.3-.6s-.2-.5-.5-.6a9 9 0 0 0-1.2-.5c.3 0 .6-.3.8-.5.3-.2.3-.5 0-.7l-.9-.3a6 6 0 0 0-1.9 0l-1.7.4.5-.4c.2-.1.5-.4.6-.7.1-.3.2-.8-.2-1.1-.2-.3-.7-.2-.8-.1-.4 0-.7.3-.8.4L91 39.7s-.8.8-1.8 1.5l-1.7 1Z"/>
  <path fill="#000" d="m91.8 41.7 1.4-1.5-1.4 1.5Zm5.1-.4c-.9.4-2 .4-2.9.3l2.9-.3Zm1.4 1.7H98c-.4.2-1 0-1.4 0l-1.8-.5 3.5.5Zm-.5 1.4h-.5a15 15 0 0 1-2.9-.8l3.4.8Z"/>
  <path fill="#fff" d="M64.8 36.2a23.3 23.3 0 0 0 4.3 2.5 44 44 0 0 0 2.3-1c.6-.3 2.1-1 2.8-2.2.3-.5.3-.8.2-1l-.3-.3.2-.2c0-.3.2-.6 0-1l-.5-.2.2-.3c.2-.5.1-.7 0-.8 0-.3-.3-.3-.6-.3l.1-.4c0-.2 0-.5-.3-.6H72l-1 .1c.3-.5.5-1.3.2-1.7-.2-.2-.6-.2-.9 0-.3.3-.5.8-.7 1.2a26.9 26.9 0 0 1-2.3 3.6c-.9 1-1.7 2-2.5 2.6Z"/>
  <path fill="#000" d="m71 30.5-.1.4-1 1.7 1.2-2Zm2.4.9v.1a8 8 0 0 1-2 2.2l-2 1.4 4-3.7Zm.4 1.4a5 5 0 0 1-1.4 1.6 7 7 0 0 1-1.8 1.2l3.2-2.8Zm.3 1.4c-.5 1-1.9 1.9-2.5 2.3l2.5-2.3Z"/>
  <path stroke="#000" stroke-linecap="round" stroke-miterlimit="10" stroke-width=".3" d="m47.8 35.8.3.4c.6.7 1.4 1.3 2.4 1.7 2 .8 4.7.7 6-.1.5-.3.7-.6.9-1 0-.2.2-.8-.2-1.7l-1.1-.2v-.2c-2.8 0-3-2.7-3-2.7.4.4 1 .6 1.5.8l1.4.2c.4 0 .8-.2 1.1-.4.7-.5 1-1.4 1-2.2l-.3-2.4a35 35 0 0 0-.6-2.6 9 9 0 0 1-4.5 0 3.3 3.3 0 0 1-.5 2.9c-.3-.2-.7-.5-1.2-.6-.3 0-.6 0-.8.3-.6.6.1 1.3.7 1.6.4.2.7.2 1 .2l-.4 1a3 3 0 0 1-1.2 1.2 13 13 0 0 1-1.7 3.5l-.8.3h0Z"/>
  <path stroke="#000" stroke-linecap="round" stroke-miterlimit="10" stroke-width=".3" d="M37.9 50.6a9.3 9.3 0 0 0 4.4 5.2c3.6 2 8.1 2 12 .8a16 16 0 0 0 5.4-3 24 24 0 0 0 3.8-4.4l2-3s0 0 0 0l.3-.4s0 0 0 0l.3-.6A2496.4 2496.4 0 0 0 70 39a27.2 27.2 0 0 1-5.1-2.8l-.6-.4-1.2 1.5H63a17 17 0 0 0-5.7-2.2c.4.9.3 1.5.2 1.7a2 2 0 0 1-.8 1c-1.4.8-4 .9-6 0a6.7 6.7 0 0 1-2.8-2c-2 .8-4.6 2.1-6.8 4.5-2.5 2.7-4.3 6.6-3.1 10.3h0Z"/>
  <path stroke="#000" stroke-linecap="round" stroke-miterlimit="10" stroke-width=".3" d="m63 37.3-.5.6c-.9 1-3 3.4-6.2 5.5a27.2 27.2 0 0 1-10.1 4m-7.4 22.1a81.6 81.6 0 0 0 12.3.2 73.6 73.6 0 0 0 18-3.5 59.5 59.5 0 0 1-3-21l-.3.5v.1l-.3.3v.1l-2 3a24 24 0 0 1-3.8 4.4 14.8 14.8 0 0 1-5.4 3 15.7 15.7 0 0 1-12.5-1 195.6 195.6 0 0 1-3 14h0Z"/>
  <path stroke="#000" stroke-linecap="round" stroke-miterlimit="10" stroke-width=".3" d="M66.1 50.5a48.4 48.4 0 0 0 23-3.5 47 47 0 0 1-2-6.2 23.4 23.4 0 0 1-17.4-1.5l-3.6 6v5.2h0Zm-26 27.7h30l-.4-1c-.7-2.8-1.7-6.3-3-10.3a73.7 73.7 0 0 1-25.6 2.8l-1 8.5h0ZM53 32s.3 2.6 3 2.7a17 17 0 0 1 0-1.7c-.5 0-1 0-1.4-.2-.6-.2-1.1-.4-1.6-.8v0Zm-5.1-5.2c0 1 .4 1.8.5 2.2l1.2 1.9a63 63 0 0 0 .7 1.1h.1a3 3 0 0 0 1.1-1.3c.2-.3.3-.7.3-1l-1-.1c-.5-.3-1.1-1-.6-1.6.2-.2.5-.3.8-.3.5.1 1 .4 1.2.6a3.2 3.2 0 0 0 .6-2.9 9 9 0 0 0 4.7-.1 2 2 0 0 0 1.2-1.2c.5-1 0-2.3-1-2.8-.5-.3-1-.3-1.2-.3-.8 0-1.3.4-1.5.6a2 2 0 0 0-1-.3c-.1 0-.6 0-1 .3-.6.4-.6 1-.6 1.1-1.2 0-2 .5-2.5.7-.5.3-1 .5-1.5 1.1-.5.8-.5 1.7-.5 2.3h0Z"/>
  <path stroke="#000" stroke-linecap="round" stroke-miterlimit="10" stroke-width=".3" d="M87.5 42.2a48.2 48.2 0 0 0 1.3 4l2.6.2a4 4 0 0 0 2.3-.5l.8-.6c.3 0 2.1.5 3 0 .1 0 .4-.2.4-.4v-.5c.1 0 .3 0 .5-.2s.2-.6.2-.6c0-.3-.1-.5-.3-.6.2-.2.3-.3.3-.6s-.2-.5-.5-.6a9 9 0 0 0-1.2-.5c.3 0 .6-.3.8-.5.3-.2.3-.5 0-.7l-.9-.3a6 6 0 0 0-1.9 0l-1.7.4.5-.4c.2-.1.5-.4.6-.7.1-.3.2-.8-.2-1.1-.2-.3-.7-.2-.8-.1-.4 0-.7.3-.8.4L91 39.7s-.8.8-1.8 1.5l-1.7 1h0Zm4.3-.5 1.4-1.5"/>
  <path stroke="#000" stroke-linecap="round" stroke-miterlimit="10" stroke-width=".3" d="M96.9 41.3c-.9.4-2 .4-2.9.3m4.3 1.4H98c-.4.2-1 0-1.4 0l-1.8-.5m3 1.9h-.5a15 15 0 0 1-2.9-.8m-29.6-7.4a23.2 23.2 0 0 0 4.3 2.5 44 44 0 0 0 2.3-1c.6-.3 2.1-1 2.8-2.2.3-.5.3-.8.2-1l-.3-.3.2-.2c0-.3.2-.6 0-1l-.5-.2.2-.3c.2-.5.1-.7 0-.8 0-.3-.3-.3-.6-.3l.1-.4c0-.2 0-.5-.3-.6H72l-1 .1c.3-.5.5-1.3.2-1.7-.2-.2-.6-.2-.9 0l-.3.4-.4.8a27 27 0 0 1-2.3 3.6l-2.5 2.6h0Z"/>
  <path stroke="#000" stroke-linecap="round" stroke-miterlimit="10" stroke-width=".3" d="m71 30.5-.1.4-1 1.7m3.5-1.2v.1a8 8 0 0 1-2 2.2l-2 1.4m4.4-2.3a5 5 0 0 1-1.4 1.6 7 7 0 0 1-1.8 1.2m3.5-1.4c-.5 1-1.9 1.9-2.5 2.3m-1.2-20.9a11 11 0 0 0 2.4 5c1.4 1.9 3 3.2 4.2 3.7.7.2 1.3.2 1.6 0 1.2-1 .3-3.9-1.8-6.7-2.2-2.8-4.8-4.4-5.9-3.6-.4.3-.5.9-.5 1.6v0Zm1-1s0 0 0 0 0 0 0 0h.7a3.4 3.4 0 0 1 .7.4 7.5 7.5 0 0 1 .7.4s0 0 0 0l.3.2s0 0 0 0l.3.3s0 0 0 0a13.8 13.8 0 0 1 2.6 3l.1.2.2.2.1.2.2.3a11.7 11.7 0 0 1 .4 1l.1.2s0 0 0 0a4.9 4.9 0 0 1 .3.9 14.5 14.5 0 0 0 .1.2v.1a4.7 4.7 0 0 1 .1.5v.4s0 0 0 0v.1s0 0 0 0a.7.7 0 0 1 0 .2s0 0 0 0 0 0 0 0l-.1.1s0 0 0 0 0 0 0 0 0 0 0 0v.1H78s0 0 0 0h-.2a1.4 1.4 0 0 1-.6 0v-.1h-.1l-.1-.1a3.8 3.8 0 0 1-.6-.3h-.1l-.8-.6v-.1l-.2-.1-.2-.2-.2-.2-.3-.3s0 0 0 0l-.1-.1-.6-.6-.2-.2c0-.2-.2-.3-.3-.4v-.1l-.2-.3-.2-.2-.1-.2-.6-.9s0 0 0 0L72 18l-.1-.3-.3-.6s0 0 0 0V17l-.3-.6c-.3-1-.2-1.6 0-1.7h0Z"/>
  <path stroke="#000" stroke-linecap="round" stroke-miterlimit="10" stroke-width=".3" d="M71.4 16.4a7 7 0 0 0 .3.7v.1a11.8 11.8 0 0 0 .6 1.3l.1.1.6 1 .1.1.2.2.1.3h.1l.3.5.2.2.6.6v.1h.1l.3.3a14.6 14.6 0 0 0 .5.5h.1c.3.3.5.5.8.6 0 0 0 0 0 0a4 4 0 0 0 .7.4h.1s0 0 0 0l.1.1h.1l.6.1s0 0 0 0 0 0 0 0h.1s0 0 0 0 0 0 0 0h.1s0 0 0 0v-.1s0 0 0 0 0 0 0 0v-.1l.1-.1s0 0 0 0v-.5s0 0 0 0a4 4 0 0 0 0-.6s0 0 0 0l-.1-.1v-.2l-.2-.6-.1-.2V21l-.2-.3a32 32 0 0 0-.4-1l-.2-.2-.1-.2-.2-.2-.1-.3a16.4 16.4 0 0 0-2.3-2.6l-.2-.3H74l-.2-.2h-.1l-.3-.2s0 0 0 0l-.3-.3H73l-.2-.2-.2-.1-.5-.2s0 0 0 0a1 1 0 0 0-.6 0s0 0 0 0 0 0 0 0c-.2 0-.4.6 0 1.7h0Zm2.7 2v-.2s0 0 0 0 0 0 0 0V18s0 0 0 0 0 0 0 0v0s0 0 0 0 0 0 0 0v-.1h.1c.3-.2.9 0 1.3.7l.2.3s0 0 0 0v.1s0 0 0 0v.2h.1v.6l-.1.2c-.3.2-.9-.1-1.3-.7l-.1-.3s0 0 0 0l-.1-.1s0 0 0 0v-.1s0 0 0 0v-.1l-.1-.1v-.1s0 0 0 0h0Z"/>
  <path stroke="#000" stroke-linecap="round" stroke-miterlimit="10" stroke-width=".3" d="M74.4 19.3c.4.6 1 1 1.3.7.3-.2.2-.8-.2-1.4-.4-.6-1-1-1.3-.8-.3.2-.2.9.2 1.5Z"/>
  <path stroke="#000" stroke-linecap="round" stroke-miterlimit="10" stroke-width=".3" d="M74.2 17.9s-.9.7-1.9.6m3.4 1.5s-.9 1-1 1.6m-12.2 4.1.2.6v.1l2.1 2.6s0 0 0 0l.6.2c.4 0 .6-.2.7-.2 0 0 0 0 0 0a50.6 50.6 0 0 1 4-3 4.3 4.3 0 0 1-2.6-2.5l-.7-1.7a43 43 0 0 1-4.1 3.3l-.2.6h0Z"/>
  <path stroke="#000" stroke-linecap="round" stroke-miterlimit="10" stroke-width=".3" d="M66.8 21.8a9.5 9.5 0 0 0 1.7 3.2c.3.2.8.7 1.6 1l.6-.4 2.7-1a16.3 16.3 0 0 1 3.6-.3c-1.2-.5-2.8-1.8-4.2-3.7a11 11 0 0 1-2.4-5 9.7 9.7 0 0 1-3.3 5.9l-.3.3h0Zm-4.5 6 1.2 1.5.4.2h.1c.2 0 .3 0 .4-.2.2 0 .3-.2.4-.3 0 0 0 0 0 0l-2-2.6-.4.4-.3.4.2.6h0Zm3.8 1.2.5.5h.4s0 0 0 0l2.3-.9a1.3 1.3 0 0 0 .5-.3s0 0 0 0c.2-.2.2-.5.1-.7a13.5 13.5 0 0 1-.4-1.3 52.5 52.5 0 0 0-3.4 2.6h0Z"/>
  <path stroke="#000" stroke-linecap="round" stroke-miterlimit="10" stroke-width=".3" d="m67 29.5.1.5c.3 1 .7 1.6 1.2 2.3a25.7 25.7 0 0 0 1.3-2.3l.4-.8-.3-.8-.4.2-2.3 1s0 0 0 0h0Zm-13.8-1.1.4-.4c.4-.2.8-.1.9 0m1.5-.3.6-.4c.4-.1.8 0 .8 0M55 28v.6l.4.5.5.3.1.2-.1.2-.3.2m-.6 1a1.2 1.2 0 0 0 .8.4"/>
  <path fill="#DFDDE6" d="M84.6 33h5.6a11 11 0 0 1-4.9 4.7 11.2 11.2 0 0 0 7.3-4.8h25V10h-33v23Z"/>
  <path fill="#fff" d="M83.5 31.8H89a11 11 0 0 1-4.9 4.7 11.2 11.2 0 0 0 7.3-4.7h25v-23h-33v23Z"/>
  <path stroke="#000" stroke-linecap="round" stroke-miterlimit="10" stroke-width=".3" d="M83.5 31.8H89a11 11 0 0 1-4.9 4.7 11.2 11.2 0 0 0 7.3-4.7h25v-23h-33v23h0Z"/>
  <path fill="#000" d="M98.4 32H112c0-1.6.2-3 .3-4a73.7 73.7 0 0 1-7 .5h-.1a3 3 0 0 1-1.1 0h-1l-4.2-.3-.4 3.8Z"/>
  <path stroke="#000" stroke-linecap="round" stroke-miterlimit="10" stroke-width=".3" d="M98 32h13.7c0-1.6.2-3 .3-4a76.6 76.6 0 0 1-7 .5h-.2s0 0 0 0c-.4.1-.8.2-1.1.1 0 0 0 0 0 0h-.2s0 0 0 0 0 0 0 0h-.4v-.1h-.5c-1.5 0-3-.2-4.3-.3L98 32h0Z"/>
  <path fill="#000" d="M102.5 27.7h.3-.3Z"/>
  <path fill="#E7E0FF" d="M96.8 17.2c1 1 1.9 1.4 2.6 1.6l-.1 1.2a1985.4 1985.4 0 0 1-1 8.2 527.6 527.6 0 0 0 5 .2l-.2-.1c-.2 0-.5-.2-.6-.4v-.2a.5.5 0 0 1-.3-.3v-.3l-.1-.2s-.1-.2 0-.2h.3c.5.3 1 .2 1.1 0 0 0-.4-.2-.5-.7v-.4c.2 0 .3.5.8.7l.5.2c.3 0 .6 0 1-.2 0 0 1.6-.4 2.9-1.3a6 6 0 0 0 1.9-5.7 8.1 8.1 0 0 0 4.5-2 9.2 9.2 0 0 0-5.8-7.3l-1.8-.3c0 .3-.2.6-.5 1-.6.8-1.8 1.4-2.9.8-.5-.2-.8-.7-1-1.2a16 16 0 0 0-4.9 3.5l-2 1.8c.2.5.6 1 1.1 1.6Z"/>
  <path fill="#000" d="M103.1 27.3c-.1 0-.6 0-.9-.2l1 .2Z"/>
  <path fill="#DFDDE6" d="M105.4 28.4a71.7 71.7 0 0 0 7.1-.5l.1-2.8-.1.2c-1.8 2-4.4 3-7 3v.1Z"/>
  <path fill="#000" d="m99.4 18.8.6-4.6-.6 4.6Z"/>
  <path fill="#fff" d="M85.2 12.9c0 .2.2.3.3.4l.4.4c1 2.2 2.3 3.8 3.4 4.8 2.1 1.6 6.7 4.1 9.7.2a6.1 6.1 0 0 1-3.3-3 5 5 0 0 1-2 .8c-1.7.3-3.4-.5-4.7-1.5-.5-.3-.8-.7-1.1-1a3.2 3.2 0 0 1-.2-.6v-1.1c-.1 0-.2 0-.7-.5l-.4-.2v.2s0 .3.4.6l.2.2s-.3.1-.4 0l-.6-.3-.4-.6-.3-.3v.2c0 .1-.1.2 0 .4l-.2.1v.3c-.2.2-.1.4-.1.5Z"/>
  <path fill="#000" d="M86.1 13.4a11.6 11.6 0 0 1-.7-.8l-.1-.2.8 1Zm.1-.4-.4-.3c0-.2-.2-.3-.3-.5V12l.7 1Zm17.5 17.1.3 1.9-.3-1.9Zm-.2-20c.4 0 .8-.2 1.2-.4a1.7 1.7 0 0 0 .7-1.1 1.7 1.7 0 0 1-1.8.4v.6l-.1.4v.1ZM101.9 5c0 .4.2.7.3.9.1.2.3.5.3.8l.2-1 .2-.2.3-.2.4.2.5.2c.3.2.5 0 .8 0 .2.2.2.5.2.5v.6c0 .2 0 .4.2.7 0-.2 0-.5.3-.6h.4l.2.5c0 .4-.1.7-.3.8a1 1 0 0 0 .5-.2l.3-.5.1-.6.3-.4c.1-.2 0-.5 0-.8l-.3-.5v-.7a1 1 0 0 0-.7-.5h-.6c-.3 0-.6-.2-.8-.3l-.6-.3h-.5l-.1.4c-.2.1-.4-.1-.8-.1a1 1 0 0 0-.8.5c-.2.2 0 .5 0 .8Z"/>
  <path fill="#fff" d="m103 10.1-.4.2c.2.5.5 1 1 1.2 1 .6 2.3 0 3-.8l.4-1a9 9 0 0 0-.6 0 6.5 6.5 0 0 1-.2-1.5h-.3c.2-.1.3-.4.3-.8 0-.2 0-.4-.2-.5h-.5c-.1.1-.3.4-.2.6-.2-.3-.2-.5-.2-.7v-.6s0-.3-.2-.4c-.3-.2-.5 0-.8 0l-.5-.3-.4-.2-.3.2-.2.3a4.3 4.3 0 0 0-.2 1.1c0 .7 0 1.2.3 1.7l.8.4h1l.8-.4-.4.8-.3.3c-.4.2-.8.4-1.2.4V10l-.5.1Z"/>
  <path fill="#000" d="M103.6 27.7c-.3 0-.6.1-.8 0h.8Zm.9.3a2 2 0 0 1-.8.3h-.6l1.4-.3Z"/>
  <path stroke="#000" stroke-linecap="round" stroke-miterlimit="10" stroke-width=".3" d="M102.5 27.7h.3m-6-10.5c1 1 1.9 1.4 2.6 1.6l-.1 1.2a1985.4 1985.4 0 0 1-1 8.2 527.6 527.6 0 0 0 5 .2l-.2-.1c-.2 0-.5-.2-.6-.4v-.2a.5.5 0 0 1-.3-.3v-.3l-.1-.2s-.1-.2 0-.2h.3c.5.3 1 .2 1.1 0 0 0-.4-.2-.5-.7v-.4c.2 0 .3.5.8.7l.5.2c.3 0 .6 0 1-.2 0 0 1.6-.4 2.9-1.3a6 6 0 0 0 1.9-5.7 8.1 8.1 0 0 0 4.5-2 9.2 9.2 0 0 0-5.8-7.3l-1.8-.3c0 .3-.2.6-.5 1-.6.8-1.8 1.4-2.9.8-.5-.2-.8-.7-1-1.2 0 0 0 0 0 0a16 16 0 0 0-4.9 3.5l-2 1.8c.2.5.6 1 1.1 1.6h0Z"/>
  <path stroke="#000" stroke-linecap="round" stroke-miterlimit="10" stroke-width=".3" d="M108.4 15.6c.9 1 1.5 2.4 1.7 3.7m-10.7-.5.6-4.6m-14.8-1.3c0 .2.2.3.3.4l.4.4a16 16 0 0 0 4.5 5.9 7.9 7.9 0 0 0 3.1 1.7 6.7 6.7 0 0 0 5.8-1.3l.1-1.2a6.2 6.2 0 0 1-3.7-3.2 5 5 0 0 1-2 1c-1.7.2-3.4-.6-4.7-1.6-.5-.3-.8-.7-1.1-1a3.2 3.2 0 0 1-.2-.6v-1.1c-.1 0-.2 0-.7-.5l-.4-.2v.2s0 .3.4.6l.2.2s-.3.1-.4 0l-.6-.3-.4-.6-.3-.3v.2c0 .1-.1.2 0 .4l-.2.1v.3c-.2.2-.1.4-.1.5h0Z"/>
  <path stroke="#000" stroke-linecap="round" stroke-miterlimit="10" stroke-width=".3" d="M86.1 13.4a11.6 11.6 0 0 1-.7-.8l-.1-.2m.9.6-.4-.3c0-.2-.2-.3-.3-.5V12"/>
  <path stroke="#fff" stroke-linecap="round" stroke-miterlimit="10" stroke-width=".3" d="m103.7 30.1.3 1.9"/>
  <path stroke="#000" stroke-linecap="round" stroke-miterlimit="10" stroke-width=".3" d="M103.5 10.1c.4 0 .8-.2 1.2-.4a1.7 1.7 0 0 0 .7-1.1 1.7 1.7 0 0 1-1.8.4v.6l-.1.4v.1ZM101.9 5c0 .4.2.7.3.9.1.2.3.5.3.8l.2-1 .2-.2.3-.2.4.2.5.2c.3.2.5 0 .8 0 .2.2.2.5.2.5v.6c0 .2 0 .4.2.7 0-.2 0-.5.3-.6h.4l.2.5c0 .4-.1.7-.3.8a1 1 0 0 0 .5-.2l.3-.5.1-.6.3-.4c.1-.2 0-.5 0-.8l-.3-.5v-.7a1 1 0 0 0-.7-.5h-.6c-.3 0-.6-.2-.8-.3l-.6-.3h-.5l-.1.4c-.2.1-.4-.1-.8-.1a1 1 0 0 0-.8.5c-.2.2 0 .5 0 .8h0Z"/>
  <path stroke="#000" stroke-linecap="round" stroke-miterlimit="10" stroke-width=".3" d="m103 10.1-.4.2c.2.5.5 1 1 1.2 1 .6 2.3 0 3-.8l.4-1a9 9 0 0 0-.6 0 6.5 6.5 0 0 1-.2-1.5h-.3c.2-.1.3-.4.3-.8 0-.2 0-.4-.2-.5h-.5c-.1.1-.3.4-.2.6-.2-.3-.2-.5-.2-.7v-.6s0-.3-.2-.4c-.3-.2-.5 0-.8 0l-.5-.3-.4-.2-.3.2-.2.3a4.3 4.3 0 0 0-.2 1.1c0 .7 0 1.2.3 1.7l.8.4h1l.8-.4-.4.8-.3.3c-.4.2-.8.4-1.2.4V10l-.5.1v0Z"/>
  <path stroke="#000" stroke-linecap="round" stroke-miterlimit="10" stroke-width=".3" d="M104.7 6.5s0-.2-.2-.2h-.4m0 1.8v.1l-.3.1"/>
  <path fill="#fff" d="m100.6 23.8 3.7 7 4.8-2.5-3.7-7-.8.4.3.6-3.1 1.6-.3-.6-.9.5Z"/>
  <path fill="#000" d="m101.3 23 .5 1 3-1.7-.2-.6-.2-.3-1.1.6v-.2a.5.5 0 1 0-.7.7l-1.3.6Zm1.2-.9a.3.3 0 1 1 .5-.2.3.3 0 0 1-.5.2Z"/>
  <path stroke="#000" stroke-linecap="round" stroke-miterlimit="10" stroke-width=".3" d="m100.6 23.8 3.7 7 4.8-2.5-3.7-7-.8.4.3.6-3.1 1.6-.3-.6-.9.5Z"/>
  <path stroke="#000" stroke-linecap="round" stroke-miterlimit="10" stroke-width=".3" d="m101.3 23 .5 1 3-1.7-.2-.6-.2-.3-1.1.6v-.2a.5.5 0 1 0-.7.7l-1.3.6h0Zm1.2-.9a.3.3 0 1 1 .5-.2.3.3 0 0 1-.5.2Z"/>
  <path fill="#fff" d="m102 27 .2.1v.3l.3.3v.2c.1.3.4.3.6.4l.3.1c.5.3 1.2.3 2 0 1.9-.1 3.7-.6 5.2-1.6 1.7-1.4 4.4-4.4 3-8.7l-.5.3c-1 .6-2.1.8-3 1a6 6 0 0 1-2 5.6 8 8 0 0 1-3.8 1.5c-.1 0-.3 0-.5-.2-.5-.2-.6-.7-.7-.7-.1 0-.2.2-.1.4 0 .5.6.6.5.8 0 .1-.6.2-1 0-.3 0-.4-.2-.5-.1v.2Z"/>
  <path stroke="#000" stroke-linecap="round" stroke-miterlimit="10" stroke-width=".3" d="m102 27 .2.1v.3l.3.3v.2c.1.3.4.3.6.4l.3.1c.5.3 1.2.3 2 0 0 0 0 0 0 0a10.2 10.2 0 0 0 7.2-3.3 8.7 8.7 0 0 0 2-4.5c.2-1.1.2-2.2 0-3.3a8 8 0 0 1-4.5 2 6 6 0 0 1-2 5.7 8 8 0 0 1-3.8 1.5c-.1 0-.3 0-.5-.2-.5-.2-.6-.7-.7-.7-.1 0-.2.2-.1.4 0 .5.6.6.5.8 0 .1-.6.2-1 0-.3 0-.4-.2-.5-.1v.2h0Z"/>
  <path stroke="#000" stroke-linecap="round" stroke-miterlimit="10" stroke-width=".3" d="M103.1 27.3c-.1 0-.6 0-.9-.2m1.4.6h-1.1m2 .3a2 2 0 0 1-.8.3h-.6"/>
  <path fill="#000" d="m106.5 72.6 1.6-4.1-1.6 4ZM116 83h-13.5v-.1l.2-.1c.5-.4.6-.9.6-1v-.2l.1-.1v-.4l.1-.1 1-2.6.5-1.3a4.8 4.8 0 0 1 0-.2 9.3 9.3 0 0 0 6.8-2.8A8.4 8.4 0 0 1 115 79l1 4ZM89 63.7v.6c0 .4-.5.7-1 .8l1-1.4Zm-1.4-.7v.7l.2.7-.2-1.3Zm.4-.2v.6l.2.8-.2-1.4Zm8.8 9.7a6.3 6.3 0 0 1-7.4-2.6 9 9 0 0 1-1.1-2.2c.8 2 3 5.3 8 4.3l.5.5Z"/>
  <path fill="#fff" stroke="#000" stroke-miterlimit="10" stroke-width=".3" d="M96.4 72c-5 1-7.3-2.3-8-4.3l-.5-1.3-.4-1.3-.2-.8c-.2-.4-.3-.6-.2-.8.1-.3.4-.4.4-.4h.1c0-.1.1-.3.3-.3h.1c.2-.3.5-.3.6-.3v-.2c0-.2.2-.4.3-.4.6 0 .6 1 .5 1.4.3 0 .5-.2.6-.5.1-.2.3-.4.5-.4.4 0 .2.5 0 .6 0 .3-.4.3-.6.5-.2.3-.3.6-.3 1a4 4 0 0 0 1.6 2.8 3.5 3.5 0 0 0 3.4.3c0 .3 0 .6.2 1a9 9 0 0 0 1.6 3.4Z"/>
  <path fill="#000" d="M88.6 62.5c0 .5 0 .9.2 1.3l-.2-1.3Z"/>
  <path fill="#fff" d="m101.8 73.6-.2.8a9.3 9.3 0 0 1-2.9-5c-.2-1-.1-1.8 0-2.4 0 0-.2 4 3.1 6.6Z"/>
  <path fill="#FBE18A" stroke="#000" stroke-miterlimit="10" stroke-width=".3" d="M111.8 74.1a9.5 9.5 0 0 1-7 2.8l1.7-4.3a6.8 6.8 0 0 1-4.3-.8l-.4 1.8C98.5 71 98.6 67 98.6 67a8.2 8.2 0 0 0 .6 4 7 7 0 0 1-2.4 1.5 9.6 9.6 0 0 1-2.2-5c2-.8 3-2.7 4.6-4l1.5-.9c0 .5 0 1.1.3 1.6.8.9 2.7.4 3.8-.5l.7-1c.3 0 .5.2.7.3 1.7 1 3 2.6 3.8 4.4a45 45 0 0 1 1.8 6.8Z"/>
  <path fill="#000" d="m119.4 58.5-.1.1-.7.8-.2.2-.8.4-1 .2c0 .7-.2 1.4-.6 2 0 .2-.1.2-.2.3a4 4 0 0 1-3.3 1.6c-1.3 0-2.4-.7-3.2-1.7l-.7.2a5.1 5.1 0 0 1-2.4 0 6 6 0 0 0-1.3-.5l-.4-.3s-1.3-1.2-1.3-3.1v-.8l.2-1c-.2-.1-.6-.2-.9-.6-.4-.5-.3-1-.3-1.2a1.7 1.7 0 0 0-.2 1.3c-.1 0-.3-.3-.4-.7v-.6a6.2 6.2 0 0 0-1.2 2.8c-.2-.4-.2-.8-.2-1.2 0-.4.2-.9.5-1.3.4-.6 1.2-.8 2-1a3 3 0 0 1 .9 0 5.1 5.1 0 0 1 1.6.6l1 .5c.5.1.9.2 1.3 0 .9-.3 1.5-1 2.2-1.7l.3-.2.3-.1c1.1-.4 2.4.1 3 1.2.5-.5 1-.8 1.7-1a3.8 3.8 0 0 1 4.3 1.3l.3.5c.4 1 .3 2-.2 3Z"/>
  <path fill="#000" d="M113.3 55c.2 0 0 0 0 .1Z"/>
  <path fill="#fff" d="m105.6 62.7-.8 1c-1 .9-3 1.4-3.8.5-.4-.5-.3-1.1-.3-1.6l1.3-.3v-.7l.6-.1c.6-.4.7-1 .8-1 0 0-.7.4-1.3.4-.2 0-.5 0-.7-.2-.9-.4-1-1.7-1-2v-.5c0-.5.3-.9.4-1.3l.9-1.4v.5c0 .4.2.6.3.7a1.7 1.7 0 0 1 .2-1.2c0 .1 0 .6.3 1 .3.5.7.6.9.7l-.2 1v.8c0 2 1.3 3.1 1.3 3.1l.4.4c.3 0 .5 0 .7.2Z"/>
  <path fill="#000" d="M103.4 60.4c0 .1-.2.7-.8 1-.2.2-.4.2-.5.2V61c.6 0 1.2-.4 1.3-.5Z"/>
  <path stroke="#000" stroke-linecap="round" stroke-miterlimit="10" stroke-width=".3" d="M98.6 67a8.3 8.3 0 0 0 .6 4"/>
  <path stroke="#000" stroke-linecap="round" stroke-miterlimit="10" stroke-width=".3" d="M98.6 67a8.3 8.3 0 0 0 .6 4m7.3 1.6 1.6-4.1m-4.9-.9-1 4.2m4.3.8a695.7 695.7 0 0 0-3.4 9.2c0 .1-.1.6-.6 1h-.1l-.6.2h-6.2c.4-.6 1-1 1.6-1.1a7 7 0 0 1 1.3-.3h1.5l1.6-7.2h0l.6-2.6a6.5 6.5 0 0 0 4.3.8h0Z"/>
  <path stroke="#000" stroke-linecap="round" stroke-miterlimit="10" stroke-width=".3" d="M116 83h-13.7v-.1l.2-.1c.5-.4.6-.9.6-1 0 0 0 0 0 0s0 0 0 0v-.2s0 0 0 0 0 0 0 0v0s0 0 0 0l.1-.1s0 0 0 0v-.2s0 0 0 0v-.1h.1V81s0 0 0 0v0l1-2.6s0 0 0 0l.5-1.3v-.2a9.5 9.5 0 0 0 7-2.8A8.4 8.4 0 0 1 115 79l1 4s0 0 0 0h0ZM89 63.7v.6c0 .4-.5.7-1 .8m-.4-2.1v.7l.2.7m.2-1.6h0m0 0v.6l.2.8"/>
  <path stroke="#000" stroke-linecap="round" stroke-miterlimit="10" stroke-width=".3" d="M96.8 72.5a6.3 6.3 0 0 1-7.4-2.6c-.8-1.1-1.2-2.3-2-4.8l-.1-.8c-.2-.4-.3-.6-.2-.8.1-.3.4-.4.4-.4s0 0 0 0h.1c0-.1.1-.3.3-.3h.1s0 0 0 0c.2-.3.5-.3.6-.3v-.2c0-.2.2-.4.3-.4.6 0 .6 1 .5 1.4.3 0 .5-.2.6-.5.1-.2.3-.4.5-.4.4 0 .2.5 0 .6 0 .3-.4.3-.6.5-.2.3-.3.6-.3 1 0 0 0 0 0 0a4 4 0 0 0 1.6 2.8 3.5 3.5 0 0 0 3.4.3c0 .3 0 .6.2 1a9.2 9.2 0 0 0 2 3.8v.1Z"/>
  <path stroke="#000" stroke-linecap="round" stroke-miterlimit="10" stroke-width=".3" d="M88.6 62.5c0 .5 0 .9.2 1.3m23 10.3a9.5 9.5 0 0 1-7 2.8l1.7-4.3a6.8 6.8 0 0 1-4.3-.8l-.6 2.6a9.3 9.3 0 0 1-2.4-3.4 7 7 0 0 1-2.4 1.5 9.6 9.6 0 0 1-2.2-5c2-.8 3-2.7 4.6-4l1.5-.9c0 .5 0 1.1.3 1.6.8.9 2.7.4 3.8-.5l.7-1s0 0 0 0c.3 0 .5.2.7.3 1.7 1 3 2.6 3.8 4.4a45 45 0 0 1 1.8 6.8h0Z"/>
  <path stroke="#000" stroke-linecap="round" stroke-miterlimit="10" stroke-width=".3" d="m119.4 58.8-.1.1-.7.9-.2.1-.8.4c-.3.2-.6.2-1 .2 0 .8-.2 1.5-.6 2.1l-.2.2a4 4 0 0 1-3.3 1.6c-1.3 0-2.4-.7-3.2-1.7l-.7.3a5.2 5.2 0 0 1-2.4 0 6 6 0 0 0-1.3-.5l-.4-.4s-1.3-1.2-1.3-3v-.8l.2-1.1c-.2 0-.6-.2-.9-.6-.4-.5-.3-1-.3-1.1a1.7 1.7 0 0 0-.2 1.2c-.1 0-.3-.3-.4-.7v-.5a6.2 6.2 0 0 0-1.2 2.7c-.2-.3-.2-.7-.2-1.1 0-.5.2-1 .5-1.3.4-.6 1.2-.9 2-1a3 3 0 0 1 .9 0 5.1 5.1 0 0 1 1.6.5l1 .5c.5.1.9.2 1.3 0 .9-.3 1.5-1 2.2-1.7l.3-.2h.3c1.1-.5 2.4 0 3 1.2 0 0 0 0 0 0 .5-.5 1-1 1.7-1.1a3.8 3.8 0 0 1 4.3 1.4l.3.4c.4 1 .3 2.1-.2 3v0Z"/>
  <path stroke="#000" stroke-linecap="round" stroke-miterlimit="10" stroke-width=".3" d="M113.3 55s0 0 0 0m0 0s0 0 0 0m0 0s0 0 0 0m0 0v0c.2 0 0 0 0 .1m-7.7 7.6s0 0 0 0l-.8 1c-1 .9-3 1.4-3.8.5-.4-.5-.3-1.1-.3-1.6l1.3-.3v-.7l.6-.1c.6-.4.7-1 .8-1 0 0-.7.4-1.3.4-.2 0-.5 0-.7-.2-.9-.4-1-1.7-1-2v-.5c0-.5.3-.9.4-1.3l.9-1.4v.5c0 .4.2.6.3.7a1.7 1.7 0 0 1 .2-1.2c0 .1 0 .6.3 1 .3.5.7.6.9.7l-.2 1v.8c0 2 1.3 3.1 1.3 3.1l.4.4c.3 0 .5 0 .7.2h0Z"/>
  <path stroke="#000" stroke-linecap="round" stroke-miterlimit="10" stroke-width=".3" d="M103.4 60.4c0 .1-.2.7-.8 1-.2.2-.4.2-.5.2V61c.6 0 1.2-.4 1.3-.5h0Zm-.4-2.6-.3-.2a.6.6 0 0 0-.4 0m-.9-.2-.3-.2h-.4"/>
  <path fill="#000" d="m28.3 21-2.5-.1 1.1 2.2 1.4-2Zm7.2 67.3-3.1 1 2.5 2.2.6-3.2Z"/>
</svg>
