<svg xmlns="http://www.w3.org/2000/svg" fill="none" viewBox="0 0 134 134">
  <path fill="#03243B" d="M99.9 119.8c0 1.7-23.8 8.7-40 1.4-3.7-1.6-3.2 0-7.4.2-7.3.6-15.5-.1-15.5-1.5 0-1.5 8.8-2.6 14.6-2.5 7.4 0 16.4-1.8 26.4-1.8 18.6 0 21.9 2.5 21.9 4.2Z"/>
  <path fill="#fff" d="M80.8 119.4h1.8V81.8h-1.8v37.6Z"/>
  <path fill="#03243B" d="M82.8 119.6h-2.2v-38h2.2v38Zm-1.7-.5h1.2v-37h-1.2v37Z"/>
  <path fill="#fff" d="M76.7 119.3a7.5 7.5 0 0 1 10 0c.8 1-10.3 1.5-10 0Z"/>
  <path fill="#03243B" d="M81.2 120.5c-1.7 0-3.4-.2-4.2-.5-.5-.2-.6-.6-.5-.8v-.1a7.7 7.7 0 0 1 10.4 0 .4.4 0 0 1 0 .5c-.4.6-3.1.9-5.7.9Zm-4.2-1.1.3.2c1.8.8 8.4.3 9.2-.2a7.2 7.2 0 0 0-9.6 0Z"/>
  <path fill="#fff" d="M87.3 81.6a7.5 7.5 0 0 1-11.2 0h11.2Z"/>
  <path fill="#03243B" d="M87 81.5c-1 1.2-2.4 2-4 2.3a7 7 0 0 1-6.7-2.3l-.2.2h11.3l.2-.1-.3-.2H76s-.3 0-.2.2a8 8 0 0 0 9.5 1.8c.9-.4 1.6-1 2.3-1.7.1-.2-.4-.4-.5-.2Z"/>
  <path fill="#fff" d="M65.2 81.4h34.1V79H65.2v2.4Z"/>
  <path fill="#03243B" d="M99.6 81.7H64.9v-3h34.7v3Zm-34.2-.5h33.7v-2H65.4v2Z"/>
  <path fill="#E70070" d="m36.4 85.8.6-.4-.6.4Zm-5.7 3.9c2-1 3-1.9 4.2-2.7l1.1-1v.1l-1.1 1c-1 .8-2.2 1.7-4.2 2.6Z"/>
  <path fill="#fff" d="M28.5 90.6c6.3-2.2 6.1-4.4 10.6-6.2 3.9-1.5 6.7-1.3 9-.9 10.8 2.3 15.5 4.2 19.5 7.6 9 7.8-5 22.5-4.2 23.7 1 1.2 1.9 2.9 3.1 3.5l1.4.6c.3.2.2 1-.1 1H65c-1.6 0-3-1.8-4.3-2.4-1.2-.5.5-2.3.5-3 0-4.7.6-13.6-3-14.4-6.3-1.3-12.4 1.1-19.2 1-6.5-.2-13-3.3-16.3-9.6 0 0 1.6.5 5.7-1Z"/>
  <path fill="#03243B" d="M66.8 120.2H65c-1 0-2-.8-2.8-1.5-.6-.4-1-.8-1.5-1a1 1 0 0 1-.5-.5c-.2-.5.1-1.2.5-1.8.2-.4.4-.7.4-1v-1.8c0-4.6.1-11.6-2.8-12.2-3.7-.8-7.3-.3-11 .2-2.7.4-5.4.8-8.2.7-3.3 0-6.6-.9-9.5-2.5a17 17 0 0 1-7-7.2l-.3-.5.6.2s1.6.4 5.6-1c3.4-1.2 4.8-2.3 6.2-3.5a16.5 16.5 0 0 1 13.4-3.6c10.8 2.3 15.5 4.2 19.6 7.7 3 2.6 4 6.3 2.6 10.8-1.1 3.8-3.5 7.6-5 10-.9 1.3-1.7 2.7-1.7 3l.5.7c.8 1 1.6 2.2 2.5 2.7l1.4.6c.3.2.4.6.3 1 0 .3-.3.5-.5.5h-1ZM54.2 99.5c1.4 0 2.8.1 4.2.4 3.3.7 3.2 7.6 3.2 12.7v1.9c0 .3-.3.7-.5 1.1-.3.5-.6 1.1-.5 1.4a.4.4 0 0 0 .3.3l1.6 1c.8.7 1.7 1.4 2.6 1.4h2.7v-.5l-1.4-.7c-1-.5-2-1.8-2.7-2.9l-.5-.6c-.3-.5.2-1.3 1.7-3.5 3.2-5 9.2-14.5 2.5-20.2-4-3.5-8.7-5.3-19.4-7.5a15 15 0 0 0-8.8.8c-2 .8-3 1.7-4.2 2.6a17 17 0 0 1-6.4 3.6c-3 1-4.6 1-5.3 1 1.5 2.8 3.8 5 6.5 6.6a20 20 0 0 0 9.3 2.4c2.8 0 5.5-.3 8-.7a49 49 0 0 1 7-.6Z"/>
  <path fill="#03243B" d="M45.1 83.2s-6.6-5.1-6.3-7.7c0 0 7 6.9 13.4 7.3 3.8.3 5.6.1 10.7-1.3 2.7 1.4 4.7 3.8 4.7 5.8 0 .8-.4 1.8-.9 3.1-4-3-11.5-6-21.6-7.2Z"/>
  <path fill="#fff" d="M50 113.9c-1.3 1.5-2 2.5-1.8 2.8a29 29 0 0 0 5.3 2.8.3.3 0 0 1-.3.5h-2.6c-.8 0-1.3-.3-1.9-.3a26 26 0 0 0-3.3.3.9.9 0 0 1-.8-.4.9.9 0 0 1 0-.8c.2-.7.8-1.6 1.2-2.9l1-3 3.2 1Z"/>
  <path fill="#03243B" d="M51.8 120.3a20.8 20.8 0 0 1-3-.3c-1.2 0-2.3 0-3.4.2a1.1 1.1 0 0 1-1-.4 1.1 1.1 0 0 1-.1-1l.5-1.2.8-1.7 1-3v-.2l3.8 1-.3.4c-1.5 1.8-1.7 2.3-1.7 2.4 1 1 5 2.6 5 2.6h.1a.6.6 0 0 1 0 1l-.3.1h-1.4Zm-3-.8.9.1.9.1h2.7v-.1a28 28 0 0 1-5.2-2.8c-.3-.2-.2-.8 1.4-2.8l-2.5-.7a171.8 171.8 0 0 1-1.8 4.6l-.4 1a.6.6 0 0 0 .5.8l3.4-.2Z"/>
  <path fill="#fff" d="M47.2 50c-1.1-1.5-1.4-5 1.5-6.5 4.4-2.2 9.8 3.6 6.9 6.8-1.3 1.4 0 3-.3 3.6-.4.6-1 .3-1.3.6-.8.4-1.2 1.4-2.4 1.7-1.3.3-2-1.1-2.5-1.2-1.3-.4-4.9.7-2.8 5.8-9.3 1-12.4-4.5-12.4-4.5 3-1.7 6.6.2 13.3-6.3Z"/>
  <path fill="#03243B" d="M44.1 61.2c-3.6 0-6.1-1-7.6-2a8.7 8.7 0 0 1-2.8-2.8l-.1-.2.2-.1c1-.6 2-.8 3.2-1 2.4-.4 5.4-1 9.9-5.1-.7-1-1-2.5-.6-3.8a4.2 4.2 0 0 1 2.3-2.9 5 5 0 0 1 4-.2c1.1.4 2.2 1.2 3 2.3 1.4 1.7 1.4 3.7.2 5-.8.8-.5 1.7-.4 2.4.2.5.3.9 0 1.2-.2.5-.6.6-1 .6a1 1 0 0 0-.3 0l-.7.7c-.4.4-1 1-1.7 1.1-1.1.3-1.8-.4-2.3-.9a2 2 0 0 0-.4-.3c-.5-.2-1.6 0-2.4.8-.6.7-1.2 2.1-.1 4.7l.1.3h-.3l-2.2.2Zm-9.8-4.8c.6 1 3.9 5 11.6 4.2-1-2.7-.4-4.1.4-5 .9-.9 2.2-1 2.9-.9l.5.5c.5.4 1 1 1.9.8.6-.2 1-.6 1.4-1l.8-.7.6-.2c.3 0 .5 0 .7-.3l-.1-.9c-.2-.7-.5-1.8.4-2.8 1.3-1.4.8-3.2-.2-4.4-1.8-2.5-4.6-2.9-6.4-2a3.7 3.7 0 0 0-2 2.6 4 4 0 0 0 .6 3.5l.1.2-.2.1c-4.6 4.5-7.7 5-10.3 5.5-1 .2-1.9.4-2.7.8Z"/>
  <path fill="#fff" d="M34 56.3s3 5.5 12.3 4.5c1.6 4.6 3.3 8 7.6 11.6 1 .8 2.1 1.5 3.3 2 5.9 2.7 6-.4 13.6.5 4.9.6 6.2 2.6 6 3.3h-3.4c-.6-.5-1.4-.8-2.3-.9-1.7 0-4.2 1.7-6.4 3a19.4 19.4 0 0 1-16 1.6c-4.7-2-9.9-6.5-9.9-6.5 0 3.6 6.3 7.8 6.3 7.8-2.7 0-4 .4-6 1.2-4.5 1.8-4.3 4-10.6 6.1-4.1 1.5-5.7 1-5.7 1-1.5-3.2-3-7.5-3-12.5 0-9.3 7.8-18.4 14.1-22.7Z"/>
  <path fill="#03243B" d="M23.7 91.8h-1v-.1a29 29 0 0 1-3-12.7c0-9 7.3-18.3 14-23l.4-.2v.4c.4.6 3.6 5.3 12.1 4.4h.2l.1.1a24 24 0 0 0 7.6 11.5c1 .8 2 1.5 3.2 2a8.7 8.7 0 0 0 6.6.7c1.6-.3 3.5-.7 7-.3 3.7.5 5.2 1.8 5.8 2.5.3.4.4.8.4 1.2v.2h-3.8c-.6-.6-1.4-.9-2.2-1-1.4 0-3.6 1.4-5.6 2.7l-.7.4c-5.9 3.5-13 2.8-16.1 1.5-4-1.6-8.2-5-9.6-6 .7 3.2 6 6.8 6.1 6.9l.7.4H45c-2.6 0-4 .4-6 1.2-2 .8-3 1.7-4 2.6-1.5 1.1-3 2.3-6.5 3.6-2.5.9-4 1-5 1Zm-.7-.5c.4 0 2 .2 5.5-1 3.4-1.2 4.8-2.4 6.2-3.5 1.2-1 2.3-1.8 4.3-2.6 1.8-.7 3.1-1.1 5.4-1.2-1.6-1.2-5.8-4.5-5.8-7.5v-.6l.4.4s5.2 4.5 9.8 6.4c2 .8 9.4 2.3 15.7-1.5l.7-.4c2.1-1.4 4.3-2.7 5.9-2.7.9 0 1.7.3 2.4.9h3c0-.2 0-.4-.2-.6-.4-.5-1.7-1.8-5.5-2.3-3.4-.4-5.2 0-6.8.3-2 .4-3.6.8-6.9-.7-1.2-.6-2.3-1.3-3.3-2.1-4.2-3.6-6-6.8-7.7-11.5-5.7.5-9-1.3-11-3l-1.3-1.5c-6.6 4.7-13.7 13.6-13.7 22.5 0 5.1 1.6 9.4 2.9 12.2Zm42.2 19.9-3.4-.8-.4-.1c-.2 0-.3.2-.1.3l3.4.8.4.1a.2.2 0 0 0 .2 0v-.2Z"/>
  <path fill="#03243B" d="M52.7 71.4c-.7.4-1.4.9-2 1.5a11.4 11.4 0 0 0-3.9 8.7.2.2 0 0 0 .3-.2 10.9 10.9 0 0 1 5.8-9.7c.2 0 0-.4-.2-.3Z"/>
  <path fill="#03243B" d="M52.3 71a6 6 0 0 0-2.5 1.4 10 10 0 0 0-1.9 2.3 14 14 0 0 0-1.2 2.7l-.2.7-.2.7v.4l-.1.3-.2.8-.5-.1.2-.8v-.3l.2-.4.2-.7.2-.8c.4-.9.8-1.8 1.4-2.7.5-.8 1.2-1.6 2-2.3a6 6 0 0 1 2.6-1.4v.2ZM37.8 60.7c-1-.4-1.8-.9-2.7-1.5a9.6 9.6 0 0 1-2.3-2.2l.3-.1a11 11 0 0 0 2.1 2.2 14 14 0 0 0 2.6 1.6Zm8.8 1c-1 .3-2 .5-3.2.4 1 0 2.1-.3 3.1-.7l.1.3Z"/>
  <path fill="#66A8F7" d="M40.3 72.5a2.7 2.7 0 1 0 0-5.4 2.7 2.7 0 0 0 0 5.4Zm-6.5-7.6a2.3 2.3 0 1 0 0-4.6 2.3 2.3 0 0 0 0 4.6Zm-3.1 15.5a2.2 2.2 0 1 0 0-4.3 2.2 2.2 0 0 0 0 4.3Zm-5.6-6a2 2 0 1 0 0-3.9 2 2 0 0 0 0 3.9Zm13.4 6.2a1.1 1.1 0 1 0 0-2.3 1.1 1.1 0 0 0 0 2.3Zm-7.2-8.3a1.1 1.1 0 1 0 0-2.3 1.1 1.1 0 0 0 0 2.3Zm12.5 3.8a1.4 1.4 0 1 0 0-2.8 1.4 1.4 0 0 0 0 2.8ZM25.1 86.2a2.2 2.2 0 1 0 0-4.4 2.2 2.2 0 0 0 0 4.4Zm20.7-19a1.2 1.2 0 1 0 0-2.5 1.2 1.2 0 0 0 0 2.5Z"/>
  <path fill="#03243B" d="M47.5 82.9a12 12 0 0 0-6.7-.4l-.8.3h-.4l-.2.2h-.2l-.8.4-.3.2-.4.1-2.9 2-2.8 1.9-3 1.7a16 16 0 0 1-6.7 1.2v-.2H24a14.8 14.8 0 0 0 5-1.3c1-.5 2-1 3-1.7l2.8-2 2.9-1.8.3-.2.4-.2c.3 0 .6-.2.8-.3h.2l.2-.1.5-.2.8-.2a12.3 12.3 0 0 1 6.8.5Zm10.9 17.2c1 .2 1.6 1 2 2.3-2.5 3-7.8 8.4-10.4 11.5l-3.2-1c1.4-4.3 2.8-10.1 3.7-13 2.6-.3 5.2-.3 7.9.2Z"/>
  <path fill="#03243B" d="m50 114.2-3.5-1v-.3c1-2.7 1.8-5.9 2.6-8.7l1.2-4.3v-.2h.2c2.1-.2 5-.4 8 .2 1 .2 1.7 1 2.2 2.4v.2l-5.1 5.6-5.5 6Zm-2.9-1.4 2.8.8a114 114 0 0 1 5.3-5.8l5-5.5c-.5-1.1-1-1.8-1.9-2a24 24 0 0 0-7.6-.1l-1.2 4.1-2.4 8.5Z"/>
  <path fill="#03243B" d="M33.4 88.8a11 11 0 0 0 4.2 4.1c.8.4 1.8.8 2.7 1l3 .4c2 0 3.9-.2 5.9-.5l2.9-.3 1.5-.2a23.3 23.3 0 0 1 4.5 0c1 0 2 .3 2.9.7.9.4 1.7 1.1 2.2 2a9 9 0 0 1 1.1 2.8c.2 1 .4 2 .4 3s0 2-.2 3a33.3 33.3 0 0 0-.1-3c0-1-.1-2-.4-3-.2-.9-.5-1.8-1-2.6l-.3-.3-.2-.3-.5-.5-.1-.2h-.1l-.3-.3-.3-.2-.4-.1a7 7 0 0 0-2.8-.8h-3a38 38 0 0 0-5.8.6c-2 .2-4 .4-6 .4-1 0-2-.2-3-.4l-2.7-1a10 10 0 0 1-4.2-4.3Z"/>
  <path fill="#03243B" d="M33 90a10.3 10.3 0 0 0 6.4 5.3c.9.2 1.8.4 2.7.4 2 .2 3.8 0 5.7-.3l5.7-.8 2.8-.1c1 0 2 0 2.9.3.4.2.9.3 1.3.6.4.2.8.5 1.1 1 .4.3.6.7.9 1.1l.5 1.3c.7 1.9.8 3.8.6 5.7a21.5 21.5 0 0 1-1.1 5.6 25 25 0 0 0 .9-8.4 11.6 11.6 0 0 0-1.2-4l-.8-1.2-1-.9-1.3-.5c-1-.2-1.9-.4-2.8-.3h-2.8l-5.7.8c-1.9.3-3.8.5-5.7.3a10.6 10.6 0 0 1-9.2-6Zm14.7-36.6a1.2 1.2 0 0 0 .9 1.2 1.4 1.4 0 0 0 1.4-.4 1.2 1.2 0 0 0 .2-1.5 1.3 1.3 0 0 0-1.4-.5 1.3 1.3 0 0 0-1 1.2c0 .1.2 0 .2 0a1 1 0 0 1 1.8-.7A1.1 1.1 0 0 1 50 54a1 1 0 0 1-1 .5 1.2 1.2 0 0 1-1-1.1c0-.1-.2 0-.2 0Zm1.3-1.3a.4.4 0 1 0 0-.8.4.4 0 0 0 0 .8Zm24.4 26.8h15.2V78H73.4v.8Z"/>
  <path fill="#03243B" d="M88.6 78.9a.4.4 0 1 0 0-.8.4.4 0 0 0 0 .8Z"/>
  <path fill="#03243B" d="m95.7 66.8-.5-.3L89 78.7h.6l6.1-11.9Z"/>
  <path fill="#03243B" d="M89.6 79H89a.2.2 0 0 1-.2-.2.2.2 0 0 1 0-.2L95 66.4a.2.2 0 0 1 .4 0l.5.2a.2.2 0 0 1 0 .3l-6 11.9a.2.2 0 0 1-.3.1Zm-.2-.5 6-11.6-6 11.6Z"/>
  <path fill="#fff" d="m82.5 78.1 4.4-10.9 8.3-.7-5.6 11.6h-7.1Z"/>
  <path fill="#03243B" d="M89.6 78.4h-7.1a.2.2 0 0 1-.3-.4l4.4-10.9a.2.2 0 0 1 .2-.1c.3 0 6.4-.7 8.4-.7a.2.2 0 0 1 .3.4l-5.7 11.5a.2.2 0 0 1-.2.2Zm-6.8-.5h6.7l5.4-11.1c-2.2 0-7 .5-7.9.6L82.8 78Z"/>
  <path fill="#66A8F7" d="M86.4 71.4h5.2l1-2.4-5.4.1-.8 2.3Zm1.4 3.2h2.4l1-2.5h-2.4l-1 2.5Z"/>
  <path fill="#03243B" d="M55.6 45c-.6-.1 0-1-1-1.2-1-.1-.5-1.2-1.8-1.1-1.3 0-1.3-.9-2.4-.5-.2.1-.4.2-.7.1.2 0 0-1 1.1-.9.5 0 .3-.7.8-1 .4-.4 1-.1 1.5-.8.2-.5 0-.9 0-1.3-.1-.5.5-1 .5-1.6 0-.5-.9-.7-.4-1.5.4-.5-.6-1.3-.1-1.9.5-.8-.8-1.1-.5-2 .4-1-.3-1-1-.9-.7 0 0-1.2-1.3-.9-1.9.5-.8-.6-2.3-.3-1.1.3-1.6-1.2-2.9-.3-.6.5-1.9-.8-2.7 0-.7.9-1.5-.5-2.8.7-1.3 1.2-2.3 0-3.1 1.4-.9 1.4 0 1.8-.6 2.5-1 1-1.2 2.4-.6 3 .8 1 .6 1.5.9 2.2.5 1 1.3.2 1.6.9.3.6 0 1.5 2 1.3 1.8-.1.8 2.5 2.8 1.5 1.3-.7 2.4 1.3 2.5 1.4-.3.1-1 .5-.8 1 .2.7-1.1.7-.7 1.6.6 1-.6 1.1.3 1.8 1 .9-.4 1.6.8 2 1 .5-.3 1 1 1.4l1.1-1 .5-.9c-.6-.7.6-2.4 1.7-2 .9.2 1.3 1 1 1.4-.4.6.2 2 .2 2v-1.3c.2-.4.8-.6 1-.8.1-.8.4-1.3 1.4-1 1.3.1 1.5-1.2 2-1.5.4-.2.8-.1.9.2 0 .2.4 0 .5.4h.5s.6-1.8-.9-2Zm-16.4 60.4A36.7 36.7 0 0 1 17.7 98a.5.5 0 0 1 .7-.5 35.1 35.1 0 0 0 20.8 6.8.5.5 0 0 1 0 1Z"/>
  <path fill="#03243B" d="M30 120.5a.8.8 0 0 1-.8-.5L26 108.5l-10.6 5.7a1 1 0 0 1-1.2-.2 1 1 0 0 1 0-1.2l10-12.1 2 7.1 7.1-3.8-2.4 15.7a.8.8 0 0 1-.7.7H30Zm-.3-.7.1.2a.3.3 0 0 0 .5-.1v-.2l2.3-14.7-6.3 3.4 3.4 11.4Zm-15.3-6.6a.5.5 0 0 0 .7.7l10.6-5.8-1.9-6.3-9.4 11.4Zm-.4-1.9a.1.1 0 0 1-.1 0v-.1l.7-1.4a19.6 19.6 0 0 0 1.1-1.8h.1v.2l-1 1.8-.7 1.3a.1.1 0 0 1-.1 0Zm-.3-1.6h-.1a.1.1 0 0 1 0-.2l.6-1.1c0-.3.2-.6.5-1.1l.1-.1a.1.1 0 0 1 .1 0 .1.1 0 0 1 0 .1l-.5 1.2a26 26 0 0 1-.7 1.2Zm20.3 3.1a.1.1 0 0 1-.2-.2c0-1 0-2.2.3-3.1a.1.1 0 0 1 0-.1.1.1 0 0 1 .2 0v.1c-.3 1-.3 2-.3 3.1a.1.1 0 0 1 0 .1Z"/>
  <path fill="#03243B" d="M28 121.1c1.8 0 3.2-.2 3.2-.5s-1.4-.6-3.2-.6c-1.7 0-3 .3-3 .6s1.3.5 3 .5Z"/>
  <path fill="#66A8F7" d="M39.4 104.7a36.7 36.7 0 0 1-21.6-7.2.5.5 0 0 1 .7-.5 35.2 35.2 0 0 0 21.2 7 .5.5 0 0 1 .2.3.5.5 0 0 1-.5.4Z"/>
</svg>
