<svg width="34" height="34" viewBox="0 0 34 34" fill="none" xmlns="http://www.w3.org/2000/svg">
<path d="M22.4336 28.5122C22.82 28.5123 23.1436 28.8254 23.1436 29.2046V29.9634C23.1436 30.9272 23.9607 31.7242 24.9551 31.7242C25.3416 31.7242 25.665 32.0373 25.665 32.4165C25.6648 32.7956 25.3414 33.1079 24.9551 33.1079H24.9346L24.9199 33.0943L24.875 33.0503H4.90234C2.71482 33.0503 0.950329 31.3356 0.950195 29.2046C0.950195 28.8254 1.27375 28.5124 1.66016 28.5122H22.4336ZM2.38867 29.8384C2.70452 30.8972 3.68985 31.7241 4.90234 31.7242H22.2812C21.9457 31.2123 21.7227 30.6423 21.7227 29.9634V29.8384H2.38867Z" fill="black" stroke="black" stroke-width="0.1"/>
<path d="M29.8782 0.950195C31.6454 0.95021 33.0499 2.31397 33.05 4.03613V6.37207C33.05 6.75122 32.7264 7.06423 32.3401 7.06445H29.8176C29.4313 7.06419 29.1077 6.75119 29.1077 6.37207C29.1078 5.99304 29.4314 5.67995 29.8176 5.67969H31.6292V4.03613C31.6289 3.07251 30.8118 2.27637 29.8176 2.27637C28.8236 2.27663 28.0073 3.07266 28.0071 4.03613V29.9639C28.0069 31.6666 26.6338 33.0175 24.8948 33.0479V33.0498H24.8352V33.0439C24.4758 33.0135 24.1848 32.7169 24.1848 32.3574C24.185 31.9783 24.5084 31.6652 24.8948 31.665C25.8891 31.665 26.7062 30.869 26.7063 29.9053V4.03613C26.7065 2.31396 28.1109 0.950195 29.8782 0.950195Z" fill="black" stroke="black" stroke-width="0.1"/>
<path d="M29.8174 0.950195C30.2039 0.950195 30.5283 1.2633 30.5283 1.64258C30.5282 2.02175 30.2038 2.33496 29.8174 2.33496H8.74414C7.75001 2.33515 6.93369 3.13113 6.93359 4.09473V29.2041C6.93359 29.5834 6.60918 29.8965 6.22266 29.8965H6.17285V29.833C5.80894 29.8073 5.5127 29.5082 5.5127 29.1455V4.03613C5.51289 2.31396 6.91731 0.950195 8.68457 0.950195H29.8174Z" fill="black" stroke="black" stroke-width="0.1"/>
<path d="M23.7539 8.54144C24.1404 8.54144 24.4648 8.85455 24.4648 9.23383C24.4647 9.613 24.1403 9.92621 23.7539 9.92621H9.94531C9.55899 9.92607 9.23549 9.61291 9.23535 9.23383C9.23535 8.85463 9.5589 8.54158 9.94531 8.54144H23.7539Z" fill="black" stroke="black" stroke-width="0.1"/>
<path d="M23.7539 14.6728C24.1404 14.6728 24.4648 14.9859 24.4648 15.3652C24.4647 15.7444 24.1403 16.0576 23.7539 16.0576H9.94531C9.55899 16.0574 9.23549 15.7443 9.23535 15.3652C9.23535 14.986 9.5589 14.673 9.94531 14.6728H23.7539Z" fill="black" stroke="black" stroke-width="0.1"/>
<path d="M23.7539 20.8042C24.1404 20.8042 24.4648 21.1173 24.4648 21.4966C24.4647 21.8758 24.1403 22.189 23.7539 22.189H9.94531C9.55899 22.1889 9.23549 21.8757 9.23535 21.4966C9.23535 21.1174 9.5589 20.8044 9.94531 20.8042H23.7539Z" fill="black" stroke="black" stroke-width="0.1"/>
</svg>
