<svg width="34" height="31" viewBox="0 0 34 31" fill="none" xmlns="http://www.w3.org/2000/svg">
<path d="M10.4922 1.99658H27.107V8.55538H11.2201" stroke="#2B2B2B" stroke-width="1.2" stroke-linecap="round" stroke-linejoin="round"/>
<path d="M14.9062 5.27533H24.1276" stroke="#2B2B2B" stroke-width="1.2" stroke-linecap="round" stroke-linejoin="round"/>
<ellipse cx="13.0914" cy="5.27535" rx="0.544569" ry="0.542498" fill="#2B2B2B"/>
<path d="M13.4395 12.3532H30.0543V18.9138H14.1655" stroke="#2B2B2B" stroke-width="1.2" stroke-linecap="round" stroke-linejoin="round"/>
<path d="M17.8538 15.6336H27.0751" stroke="#2B2B2B" stroke-width="1.2" stroke-linecap="round" stroke-linejoin="round"/>
<ellipse cx="16.039" cy="15.6336" rx="0.544569" ry="0.542498" fill="#2B2B2B"/>
<path d="M16.3867 22.7114H33.0015V29.272H17.1128" stroke="#2B2B2B" stroke-width="1.2" stroke-linecap="round" stroke-linejoin="round"/>
<path d="M20.8008 25.9917H30.0222" stroke="#2B2B2B" stroke-width="1.2" stroke-linecap="round" stroke-linejoin="round"/>
<ellipse cx="18.986" cy="25.9917" rx="0.544569" ry="0.542498" fill="#2B2B2B"/>
<path d="M15.4776 26.0426C15.5067 23.6748 13.6034 21.7319 11.2266 21.703C8.84982 21.6741 6.89949 23.5701 6.87045 25.9378C6.84141 28.3056 8.74466 30.2485 11.1215 30.2774C13.4983 30.3064 15.4486 28.4104 15.4776 26.0426Z" stroke="#2B2B2B" stroke-width="1.2" stroke-linecap="round" stroke-linejoin="round"/>
<path d="M9.35132 26.0059L10.769 27.4254L12.9945 24.5556" stroke="#2B2B2B" stroke-width="1.2" stroke-linecap="round" stroke-linejoin="round"/>
<path d="M12.5699 15.7175C12.599 13.3497 10.6957 11.4068 8.31891 11.3779C5.9421 11.349 3.99178 13.245 3.96274 15.6127C3.9337 17.9805 5.83694 19.9234 8.21375 19.9523C10.5906 19.9813 12.5409 18.0853 12.5699 15.7175Z" stroke="#2B2B2B" stroke-width="1.2" stroke-linecap="round" stroke-linejoin="round"/>
<path d="M6.44312 15.6805L7.86081 17.1L10.0881 14.2302" stroke="#2B2B2B" stroke-width="1.2" stroke-linecap="round" stroke-linejoin="round"/>
<path d="M9.65903 5.39062C9.68766 3.02285 7.78408 1.08027 5.40726 1.05175C3.03045 1.02324 1.08045 2.91958 1.05183 5.28735C1.0232 7.65513 2.92679 9.5977 5.3036 9.62622C7.68042 9.65473 9.63041 7.75839 9.65903 5.39062Z" stroke="#2B2B2B" stroke-width="1.2" stroke-linecap="round" stroke-linejoin="round"/>
<path d="M3.53516 5.35307L4.95104 6.77442L7.17833 3.9046" stroke="#2B2B2B" stroke-width="1.2" stroke-linecap="round" stroke-linejoin="round"/>
</svg>
