<svg width="36" height="35" viewBox="0 0 36 35" fill="none" xmlns="http://www.w3.org/2000/svg">
<g clip-path="url(#clip0_0_70)">
<path d="M1.86007 34.9998C1.52697 34.9998 1.20438 34.87 0.956805 34.6238C0.5967 34.2657 0.482667 33.748 0.661219 33.2735L8.16791 13.1789C8.27744 12.8865 8.60604 12.7373 8.90012 12.8462C9.19421 12.9551 9.34425 13.2804 9.23472 13.5743L1.72653 33.6674C1.69952 33.7405 1.72953 33.7928 1.76104 33.8226C1.79255 33.8539 1.84356 33.8838 1.91709 33.8569L22.125 26.3923C22.4206 26.2834 22.7477 26.4326 22.8572 26.725C22.9667 27.0175 22.8167 27.3442 22.5226 27.4531L2.3132 34.9178C2.16466 34.973 2.01161 34.9998 1.86007 34.9998Z" fill="#121212"/>
<path d="M21.7535 27.5753C19.6289 27.5753 16.1674 25.2269 13.2835 22.3607C9.66747 18.7649 6.87215 14.2635 8.52713 12.6178C8.98027 12.1672 9.92704 11.8031 11.8671 12.6282C12.1567 12.7505 12.2902 13.0833 12.1672 13.3712C12.0442 13.6592 11.7096 13.792 11.42 13.6681C10.2121 13.1549 9.54893 13.2011 9.33287 13.4175C8.63366 14.1128 10.1386 17.6325 14.0893 21.561C18.0399 25.4895 21.5779 26.986 22.2786 26.2907C22.4992 26.0714 22.5442 25.4 22.0086 24.1735C21.884 23.887 22.0161 23.5543 22.3042 23.429C22.5937 23.3052 22.9268 23.4365 23.0529 23.7229C23.9081 25.682 23.542 26.6354 23.0844 27.0904C22.7483 27.4246 22.2952 27.5753 21.755 27.5753H21.7535Z" fill="#121212"/>
<path d="M16.9057 29.4838C16.8382 29.4838 16.7691 29.4718 16.7031 29.4465C14.8906 28.7587 12.6489 27.1682 10.5498 25.0808C9.42149 23.9588 8.4072 22.7592 7.61497 21.6103C7.43791 21.3522 7.50393 21.0001 7.76201 20.824C8.02158 20.6465 8.37569 20.7136 8.55274 20.9703C9.30596 22.0624 10.2737 23.2083 11.3526 24.2811C13.3121 26.2297 15.4638 27.7665 17.1067 28.3901C17.4008 28.502 17.5479 28.8288 17.4353 29.1197C17.3483 29.345 17.1322 29.4838 16.9042 29.4838H16.9057Z" fill="#121212"/>
<path d="M12.5444 31.094C12.4828 31.094 12.4198 31.0836 12.3568 31.0627C10.8879 30.5539 9.18639 29.4095 7.69045 27.922C6.99875 27.2341 6.38507 26.5105 5.86442 25.7704C5.68437 25.5138 5.74738 25.1617 6.00396 24.9827C6.26203 24.8021 6.61614 24.8663 6.79619 25.1214C7.27933 25.8077 7.851 26.4807 8.49468 27.1207C9.87359 28.4919 11.4175 29.5393 12.7304 29.9929C13.0275 30.0958 13.1836 30.4181 13.0815 30.7135C12.999 30.9463 12.7799 31.094 12.5444 31.094Z" fill="#121212"/>
<path d="M7.98731 32.7124C7.92579 32.7124 7.86278 32.702 7.80126 32.6811C6.77946 32.3275 5.72615 31.6471 4.83639 30.7624C4.60082 30.5281 4.37726 30.2804 4.1702 30.0253C3.97364 29.7821 4.01265 29.4255 4.25722 29.23C4.50179 29.0346 4.8604 29.0734 5.05696 29.3166C5.23701 29.5389 5.43357 29.7567 5.64063 29.9626C6.41185 30.728 7.31061 31.3144 8.17487 31.6128C8.47195 31.7158 8.628 32.038 8.52597 32.3335C8.44494 32.5677 8.22438 32.7139 7.98881 32.7139L7.98731 32.7124Z" fill="#121212"/>
<path d="M29.7856 26.569C28.6017 26.569 27.4914 25.8319 27.0788 24.6592C26.9753 24.3637 27.1313 24.0415 27.4284 23.9385C27.7255 23.8356 28.0496 23.9907 28.1531 24.2861C28.4667 25.1799 29.454 25.6528 30.3513 25.341C31.6776 24.88 32.3798 23.4342 31.9162 22.1152L31.8142 21.8228C31.3896 20.6128 30.1997 19.8324 28.9168 19.9249L28.5477 19.9831C25.6879 20.4367 22.9871 21.6363 20.7394 23.4521C20.4949 23.649 20.1378 23.6118 19.9397 23.37C19.7417 23.1268 19.7792 22.7717 20.0222 22.5748C22.4259 20.6352 25.3113 19.352 28.3677 18.8671L28.7608 18.8044C28.7758 18.8014 28.7908 18.8 28.8058 18.7985C30.6168 18.6567 32.2913 19.7489 32.8885 21.4498L32.9905 21.7422C33.6597 23.6491 32.6439 25.7424 30.7264 26.4093C30.4158 26.5167 30.0977 26.569 29.7856 26.569Z" fill="#121212"/>
<path d="M12.4807 15.8876C12.3547 15.8876 12.2287 15.8458 12.1221 15.7608C11.8776 15.5638 11.8416 15.2072 12.0396 14.9655C13.2895 13.4347 14.1147 11.5965 14.4268 9.64943L14.4658 9.40175C14.5198 8.59456 14.0232 7.84855 13.255 7.58147L13.0509 7.50986C12.2212 7.2204 11.3074 7.65906 11.0163 8.48564C10.9263 8.74227 10.9413 9.01979 11.0613 9.26597C11.1814 9.51216 11.3884 9.69568 11.648 9.78669C11.9451 9.88964 12.1011 10.2119 11.9976 10.5073C11.8941 10.8028 11.57 10.9579 11.2729 10.855C10.7267 10.6655 10.2886 10.2761 10.0365 9.75834C9.78596 9.24061 9.75145 8.65573 9.94201 8.11413C10.4387 6.69819 12.0006 5.9492 13.426 6.44306L13.6301 6.51467C14.8935 6.95333 15.7037 8.18575 15.6002 9.51216C15.6002 9.52708 15.5972 9.542 15.5942 9.55692L15.5506 9.82847C15.2055 11.9725 14.2978 13.9957 12.9219 15.6787C12.8093 15.816 12.6458 15.8876 12.4792 15.8876H12.4807Z" fill="#121212"/>
<path d="M35.4314 7.29303C35.2858 7.29303 35.1403 7.23782 35.0293 7.12741L33.2527 5.36085C33.0307 5.14003 33.0307 4.78194 33.2527 4.56112C33.4748 4.3403 33.8349 4.3403 34.057 4.56112L35.8335 6.32768C36.0555 6.5485 36.0555 6.90659 35.8335 7.12741C35.7225 7.23782 35.5769 7.29303 35.4314 7.29303Z" fill="#121212"/>
<path d="M33.6548 7.29303C33.5093 7.29303 33.3638 7.23782 33.2527 7.12741C33.0307 6.90659 33.0307 6.5485 33.2527 6.32768L35.0293 4.56112C35.2513 4.3403 35.6114 4.3403 35.8335 4.56112C36.0555 4.78194 36.0555 5.14003 35.8335 5.36085L34.057 7.12741C33.9459 7.23782 33.8004 7.29303 33.6548 7.29303Z" fill="#121212"/>
<path d="M18.6714 2.89752C18.5258 2.89752 18.3803 2.84231 18.2692 2.7319L16.4927 0.965342C16.2707 0.744522 16.2707 0.386435 16.4927 0.165615C16.7148 -0.055205 17.0749 -0.055205 17.297 0.165615L19.0735 1.93218C19.2955 2.153 19.2955 2.51108 19.0735 2.7319C18.9624 2.84231 18.8169 2.89752 18.6714 2.89752Z" fill="#121212"/>
<path d="M16.8948 2.89752C16.7493 2.89752 16.6038 2.84231 16.4927 2.7319C16.2707 2.51108 16.2707 2.153 16.4927 1.93218L18.2692 0.165615C18.4913 -0.055205 18.8514 -0.055205 19.0735 0.165615C19.2955 0.386435 19.2955 0.744522 19.0735 0.965342L17.297 2.7319C17.1859 2.84231 17.0404 2.89752 16.8948 2.89752Z" fill="#121212"/>
<path d="M25.5464 33.596C25.4008 33.596 25.2553 33.5408 25.1442 33.4304L23.3677 31.6638C23.1457 31.443 23.1457 31.0849 23.3677 30.8641C23.5898 30.6433 23.9499 30.6433 24.172 30.8641L25.9485 32.6307C26.1705 32.8515 26.1705 33.2096 25.9485 33.4304C25.8374 33.5408 25.6919 33.596 25.5464 33.596Z" fill="#121212"/>
<path d="M23.7698 33.596C23.6243 33.596 23.4788 33.5408 23.3677 33.4304C23.1457 33.2096 23.1457 32.8515 23.3677 32.6307L25.1442 30.8641C25.3663 30.6433 25.7264 30.6433 25.9485 30.8641C26.1705 31.0849 26.1705 31.443 25.9485 31.6638L24.172 33.4304C24.0609 33.5408 23.9154 33.596 23.7698 33.596Z" fill="#121212"/>
<path d="M2.34518 15.0038C2.19964 15.0038 2.0541 14.9486 1.94307 14.8382L0.166549 13.0717C-0.0555162 12.8508 -0.0555162 12.4928 0.166549 12.2719C0.388613 12.0511 0.748718 12.0511 0.970783 12.2719L2.7473 14.0385C2.96937 14.2593 2.96937 14.6174 2.7473 14.8382C2.63627 14.9486 2.49073 15.0038 2.34518 15.0038Z" fill="#121212"/>
<path d="M0.568666 15.0038C0.423123 15.0038 0.277581 14.9486 0.166549 14.8382C-0.0555162 14.6174 -0.0555162 14.2593 0.166549 14.0385L1.94307 12.2719C2.16513 12.0511 2.52524 12.0511 2.7473 12.2719C2.96937 12.4928 2.96937 12.8508 2.7473 13.0717L0.970783 14.8382C0.859751 14.9486 0.714208 15.0038 0.568666 15.0038Z" fill="#121212"/>
<path d="M16.7073 19.4564C16.5618 19.4564 16.4163 19.4012 16.3052 19.2908C16.0832 19.0699 16.0832 18.7119 16.3052 18.491L24.9958 9.84921C25.2178 9.62839 25.5779 9.62839 25.8 9.84921C26.0221 10.07 26.0221 10.4281 25.8 10.6489L17.1095 19.2908C16.9984 19.4012 16.8529 19.4564 16.7073 19.4564Z" fill="#121212"/>
<path d="M27.1099 9.11182C26.9644 9.11182 26.8188 9.05661 26.7078 8.9462C26.4857 8.72538 26.4857 8.3673 26.7078 8.14648L27.7806 7.07968C28.0027 6.85886 28.3628 6.85886 28.5849 7.07968C28.8069 7.3005 28.8069 7.65858 28.5849 7.8794L27.512 8.9462C27.401 9.05661 27.2555 9.11182 27.1099 9.11182Z" fill="#121212"/>
<path d="M29.8284 6.41018C29.6829 6.41018 29.5373 6.35497 29.4263 6.24456C29.2042 6.02374 29.2042 5.66566 29.4263 5.44484L29.5569 5.31503C29.7789 5.09421 30.139 5.09421 30.3611 5.31503C30.5832 5.53585 30.5832 5.89394 30.3611 6.11476L30.2305 6.24456C30.1195 6.35497 29.974 6.41018 29.8284 6.41018Z" fill="#121212"/>
<path d="M14.5957 17.6742C14.4831 17.6742 14.3676 17.6414 14.2686 17.5713C14.012 17.3907 13.9505 17.0386 14.1305 16.7835L19.154 9.68292C19.3356 9.42778 19.6897 9.36512 19.9462 9.54565C20.2028 9.72619 20.2643 10.0783 20.0843 10.3334L15.0608 17.434C14.9498 17.5907 14.7742 17.6742 14.5942 17.6742H14.5957Z" fill="#121212"/>
<path d="M20.6093 9.17558C20.4968 9.17558 20.3813 9.14276 20.2823 9.07263C20.0257 8.89359 19.9642 8.53998 20.1442 8.28484L20.7639 7.40753C20.9439 7.15239 21.2996 7.08973 21.5561 7.27026C21.8127 7.44931 21.8742 7.80292 21.6942 8.05805L21.0745 8.93537C20.9635 9.09203 20.7879 9.17558 20.6078 9.17558H20.6093Z" fill="#121212"/>
<path d="M22.1803 6.95596C22.0678 6.95596 21.9537 6.92314 21.8532 6.85301C21.5966 6.67397 21.5336 6.32036 21.7152 6.06522L21.7902 5.95929C21.9703 5.70415 22.3259 5.64148 22.5824 5.82202C22.839 6.00106 22.902 6.35467 22.7205 6.60981L22.6455 6.71574C22.5344 6.87241 22.3589 6.95596 22.1788 6.95596H22.1803Z" fill="#121212"/>
<path d="M18.4077 21.4645C18.2292 21.4645 18.0521 21.3809 17.9411 21.2243C17.761 20.9691 17.8226 20.6155 18.0791 20.4365L25.2197 15.4412C25.4763 15.2606 25.8319 15.3233 26.0119 15.5784C26.192 15.8336 26.1305 16.1872 25.8739 16.3662L18.7333 21.3615C18.6343 21.4317 18.5203 21.4645 18.4062 21.4645H18.4077Z" fill="#121212"/>
<path d="M26.9546 15.4838C26.776 15.4838 26.599 15.4003 26.488 15.2436C26.3079 14.9885 26.3694 14.6348 26.626 14.4558L27.5068 13.8396C27.7633 13.6591 28.1189 13.7217 28.299 13.9769C28.479 14.232 28.4175 14.5856 28.161 14.7647L27.2802 15.3809C27.1812 15.451 27.0671 15.4838 26.9531 15.4838H26.9546Z" fill="#121212"/>
<path d="M29.1866 13.9217C29.008 13.9217 28.831 13.8381 28.7215 13.6815C28.5399 13.4263 28.6014 13.0727 28.8595 12.8937L28.966 12.8191C29.2226 12.6386 29.5782 12.7012 29.7583 12.9564C29.9398 13.2115 29.8783 13.5651 29.6202 13.7441L29.5137 13.8188C29.4147 13.8889 29.3006 13.9217 29.1866 13.9217Z" fill="#121212"/>
</g>
<defs>
<clipPath id="clip0_0_70">
<rect width="36" height="35" fill="white"/>
</clipPath>
</defs>
</svg>
