<svg width="35" height="35" viewBox="0 0 35 35" fill="none" xmlns="http://www.w3.org/2000/svg">
<path d="M17.5 0.900391C26.6752 0.900391 34.0996 8.32477 34.0996 17.5C34.0996 26.6752 26.6752 34.0996 17.5 34.0996C8.32477 34.0996 0.900391 26.6752 0.900391 17.5C0.900391 8.32477 8.32477 0.900391 17.5 0.900391ZM17.5 2.36035C9.15523 2.36035 2.36035 9.15523 2.36035 17.5C2.36035 25.8448 9.15523 32.6396 17.5 32.6396C25.8448 32.6396 32.6396 25.8448 32.6396 17.5C32.6396 9.15523 25.8448 2.36035 17.5 2.36035Z" fill="black" stroke="black" stroke-width="0.02px"/>
<path d="M11.9238 9.13672C12.1345 8.99624 12.4134 8.99513 12.626 9.13184H12.627L26.9668 16.8721L26.9756 16.877L26.9834 16.8828L26.9844 16.8838L26.9883 16.8877C26.9913 16.8902 26.9957 16.8938 27.001 16.8984C27.0116 16.9078 27.0271 16.9207 27.0449 16.9375C27.0804 16.971 27.1279 17.0193 27.1758 17.0752C27.2233 17.1307 27.2733 17.1966 27.3115 17.2666C27.3491 17.3356 27.3799 17.4165 27.3799 17.5C27.3799 17.6375 27.3446 17.7619 27.2725 17.8701C27.2011 17.9771 27.0967 18.0612 26.9658 18.127L26.9668 18.1279L12.627 25.8682L12.6191 25.8721L12.6113 25.875H12.6104L12.6084 25.876C12.6069 25.8765 12.6042 25.8771 12.6016 25.8779C12.596 25.8797 12.5878 25.8819 12.5781 25.8848C12.5583 25.8907 12.5308 25.8993 12.499 25.9072C12.4647 25.9158 12.4227 25.9232 12.3799 25.9297V26H12.2656C12.2577 25.9997 12.2467 25.9991 12.2334 25.998C12.2069 25.9959 12.1703 25.9912 12.1309 25.9824C12.0919 25.9738 12.0459 25.9604 12.0039 25.9375C11.9687 25.9183 11.9324 25.8893 11.9053 25.8486C11.7129 25.7131 11.5802 25.5098 11.5801 25.2402V9.74609L11.584 9.73242V9.73047C11.5843 9.72952 11.5845 9.72817 11.585 9.72656C11.586 9.7231 11.5879 9.71816 11.5898 9.71191C11.5937 9.69944 11.5991 9.68166 11.6064 9.66016C11.6211 9.6171 11.6433 9.5583 11.6709 9.49512C11.6984 9.43221 11.7329 9.36316 11.7734 9.30078C11.8131 9.23973 11.8626 9.17762 11.9238 9.13672ZM12.9795 23.9922L25.0283 17.5L12.9795 11.0068V23.9922Z" fill="black" stroke="black" stroke-width="0.02px"/>
</svg>
