<svg xmlns="http://www.w3.org/2000/svg" fill="none" viewBox="0 0 144 57">
  <path fill="#346BD5" d="M61 38.5V17.4h8c1.6 0 2.9.2 4 .7a5.2 5.2 0 0 1 3 4.8 5 5 0 0 1-.5 2.2c-.4.6-.8 1-1.4 1.5l-1.8.8v.2c.7 0 1.4.3 2.1.7.7.4 1.3 1 1.7 1.7.5.8.7 1.7.7 2.8 0 1-.3 2-.8 3-.5.8-1.3 1.5-2.4 2-1 .5-2.4.7-4 .7H61Zm3.8-3.2H69c1.4 0 2.4-.2 3-.7.7-.6 1-1.3 1-2.1a3.2 3.2 0 0 0-1.8-3c-.6-.2-1.3-.4-2-.4h-4.3v6.2Zm0-9h3.8c.7 0 1.3 0 1.8-.3a2.8 2.8 0 0 0 1.7-2.7c0-.7-.3-1.4-.8-2-.6-.5-1.5-.7-2.6-.7h-3.9v5.8ZM99 28c0 2.3-.4 4.2-1.3 5.8a9 9 0 0 1-8.4 5 9.2 9.2 0 0 1-8.4-5c-.9-1.6-1.3-3.6-1.3-5.8 0-2.3.4-4.3 1.2-5.9a9.1 9.1 0 0 1 8.5-5 9 9 0 0 1 8.4 5A12 12 0 0 1 99 28Zm-3.8 0c0-1.6-.3-3-.8-4a6 6 0 0 0-2-2.6c-1-.6-2-.9-3.1-.9-1.2 0-2.2.3-3 .9-1 .6-1.6 1.4-2.1 2.5a9.9 9.9 0 0 0-.8 4c0 1.7.3 3 .8 4.1.5 1.1 1.2 2 2 2.6 1 .5 2 .8 3.1.8s2.2-.3 3-.8c1-.6 1.6-1.5 2.1-2.6.5-1 .8-2.4.8-4Zm21.6-3.9a5.5 5.5 0 0 0-1.8-2.6l-1.4-.7a6 6 0 0 0-4.8.6 5 5 0 0 0-2 2.5 9.7 9.7 0 0 0-.8 4c0 1.6.2 3 .7 4.1a5.6 5.6 0 0 0 5.2 3.4 6 6 0 0 0 2.8-.6 4 4 0 0 0 1.8-1.8c.5-.7.7-1.6.7-2.7l.9.2h-5.8v-3h8.6V30c0 1.8-.4 3.4-1.2 4.7a8 8 0 0 1-3.1 3c-1.4.8-3 1.1-4.7 1.1a9 9 0 0 1-8.6-5 13 13 0 0 1-1.2-5.8c0-1.7.2-3.2.7-4.6a10 10 0 0 1 2-3.4c1-1 2-1.7 3.1-2.2a11.4 11.4 0 0 1 7.2-.2 8.7 8.7 0 0 1 4.6 3.7c.5.9.9 1.8 1 2.8h-3.9Zm26.7 3.9c0 2.3-.4 4.2-1.3 5.8a9 9 0 0 1-8.4 5 9.2 9.2 0 0 1-8.4-5c-1-1.6-1.3-3.6-1.3-5.8 0-2.3.4-4.3 1.2-5.9a9.1 9.1 0 0 1 8.5-5 9 9 0 0 1 8.4 5 12 12 0 0 1 1.3 5.9Zm-3.9 0c0-1.6-.2-3-.7-4a6 6 0 0 0-2-2.6c-1-.6-2-.9-3.1-.9-1.2 0-2.2.3-3 .9-1 .6-1.6 1.4-2.1 2.5a9.9 9.9 0 0 0-.8 4c0 1.7.3 3 .8 4.1.5 1.1 1.2 2 2 2.6a6.2 6.2 0 0 0 6.1 0c1-.6 1.6-1.5 2-2.6a8 8 0 0 0 .8-4ZM30 0 .4 10l8.8 25.7 30.6-11.3 4.4-9.4-3.7-10.6L29.9 0Z"/>
  <path fill="#346BD5" fill-rule="evenodd" d="m.5 45 30.7 11.3 9.4-4.3 3.7-10.7L40 32 9.3 20.7.5 45ZM3 43.9l28 10 7.3-3.2 3.5-9.3-3.5-7.7-27.8-9.2L3 43.8Z" clip-rule="evenodd"/>
  <path fill="#346BD5" fill-rule="evenodd" d="M34 48.2a5.3 5.3 0 1 0 0-10.7 5.3 5.3 0 0 0 0 10.7Zm0-1.5a3.8 3.8 0 1 0 0-7.6 3.8 3.8 0 0 0 0 7.6Z" clip-rule="evenodd"/>
</svg>