<svg xmlns="http://www.w3.org/2000/svg" fill="none" viewBox="0 0 34 30">
  <path fill="#fff" stroke="#293F54" d="M32.8 28c0 .6-.5 1-1 1H2.1a1 1 0 0 1-1-1V2c0-.6.4-1 1-1h29.5c.6 0 1 .4 1 1v26Z"/>
  <path stroke="#293F54" d="M1 8h31.7"/>
  <path fill="#00B1CC" d="M3.8 5.4a.8.8 0 1 0 0-1.7.8.8 0 0 0 0 1.7Zm4 0a.8.8 0 1 0 0-1.7.8.8 0 0 0 0 1.7Zm4 0a.8.8 0 1 0 0-1.7.8.8 0 0 0 0 1.7Z"/>
  <path fill="#293F54" d="M17.1 5a.5.5 0 1 0 0-1 .5.5 0 0 0 0 1Zm2.5 0a.5.5 0 1 0 0-1 .5.5 0 0 0 0 1Zm2.6 0a.5.5 0 1 0 0-1 .5.5 0 0 0 0 1Zm2.5 0a.5.5 0 1 0 0-1 .5.5 0 0 0 0 1Zm2.5 0a.5.5 0 1 0 0-1 .5.5 0 0 0 0 1Zm2.6 0a.5.5 0 1 0 0-1 .5.5 0 0 0 0 1ZM15.7 25.8a1 1 0 1 0 0-2 1 1 0 0 0 0 2Zm6.8 0a1 1 0 1 0 0-2 1 1 0 0 0 0 2Zm1.5-4.2-1.2-8h-2l1 7.2h-2l-.8-4.4h-2l.8 4.4h-2l-2-8.3a1 1 0 0 0-.9-.7H6.2v1.9H12l2 8.3c0 .4.5.7 1 .7h8a1 1 0 0 0 .9-1Z"/>
  <path fill="#00B1CC" d="M15.5 11.6a1 1 0 0 1 1-.5 1 1 0 0 1 .8.5l.1.5a1 1 0 0 1-.5.9 1 1 0 0 1-.5 0 1 1 0 0 1-.5 0 1 1 0 0 1-.5-.8l.1-.6Zm4-.4L16.7 15H16l2.8-3.7h.8Zm-3.4 1 .1.2h.4l.1-.1v-.4h-.1l-.2-.1h-.2a.3.3 0 0 0-.1.3v.2Zm2 1.4a1 1 0 0 1 1-.5 1 1 0 0 1 .8.5l.1.5a1 1 0 0 1-.5.8 1 1 0 0 1-.5.1 1 1 0 0 1-1-1l.1-.4Zm.6.6a.3.3 0 0 0 .3.2h.2l.1-.2v-.1a.4.4 0 0 0-.1-.4H19a.3.3 0 0 0-.3.2v.3Z"/>
</svg>