<svg xmlns="http://www.w3.org/2000/svg" fill="none" viewBox="0 0 115 60">
  <path fill="#346BD5" d="M48.6 1.4c.2-.8 1-1.2 1.8-1l26.3 7a1.5 1.5 0 1 1-.8 2.8l-26.3-7c-.7-.2-1.2-1-1-1.8ZM38 40.9c.3-.8 1-1.3 1.8-1l26.3 7a1.5 1.5 0 0 1-.7 2.8l-26.3-7c-.8-.3-1.3-1-1-1.8Z"/>
  <path fill="#346BD5" fill-rule="evenodd" d="M51.6 1.7c.5.1.8.7.6 1.2-.8 3.3-1.4 5.6-1.3 8 .2 2.3 1.2 4.8 3.6 8.4l-.8.6.8-.6c.9 1.3 1.5 2.3 1.8 3.1.4.9.5 1.7.2 2.5a4 4 0 0 1-1.7 1.7l-1.9 1-.6.2h-.1A16 16 0 0 0 42 41.3a1 1 0 0 1-2-.3 18 18 0 0 1 12.1-15.3l1.7-.8.9-.7-.2-1c-.2-.7-.7-1.5-1.6-2.8a19.1 19.1 0 0 1-4-9.4c-.1-2.7.6-5.3 1.4-8.5v-.1a1 1 0 0 1 1.3-.7ZM75.1 8a1 1 0 0 0-1.2.7c-.9 3.3-1.5 5.6-2.8 7.6-1.3 2-3.4 3.6-7.4 5.5l.4.9-.4-.9c-1.3.7-2.4 1.2-3 1.8-.8.6-1.3 1.2-1.4 2-.1.9.2 1.6.6 2.3l1.1 1.8.4.6a16 16 0 0 1 2.2 16.8 1 1 0 0 0 1.8.7 18 18 0 0 0-2.8-19.3l-1-1.6c-.4-.5-.4-.8-.4-1 0-.1 0-.4.6-.8s1.4-.9 2.8-1.5c4-2 6.5-3.9 8-6.2 1.6-2.3 2.3-4.9 3.2-8v-.2a1 1 0 0 0-.7-1.2Z" clip-rule="evenodd"/>
  <path fill="#404040" d="M44.6 39c1-3.5 4.7-5.7 8.3-4.7l4.7 1.2c3.6 1 5.8 4.7 4.8 8.4L44.6 39Zm13.7-9.8a1.5 1.5 0 1 1-2.8-.8 1.5 1.5 0 0 1 2.8.8Z"/>
  <path fill="#CCC" d="M.7 52.7c0-1.3 1-2.4 2.4-2.4h111.3V55H3.1c-1.3 0-2.4-1-2.4-2.4Z"/>
  <path stroke="#CCC" d="M4.1 54.7H114v4.8H4.1z"/>
  <path fill="#CCC" fill-rule="evenodd" d="M102.3 17.2h12.1v32.1H85.3V39.1h5.1l.1-.4.8-2.1a1 1 0 1 1 .7-1.8l1.1-2.1a1 1 0 1 1 1.1-1.6l1.6-1.5a1 1 0 0 1 .7-1.7c.3 0 .7.2.8.6.7-.4 1.4-.8 2.2-1a1 1 0 1 1 1.8-.6l1-.3v-9.4Zm2 2v9l-.9.2c-4.3.7-6.8 2.6-8.3 4.9-1.4 1.9-2 4-2.7 5.9l-.4 1.2-.2.6h-4.6v6.4h25.3V19.2h-8.3Z" clip-rule="evenodd"/>
</svg>