<svg xmlns="http://www.w3.org/2000/svg" fill="none" viewBox="0 0 106 60">
  <g clip-path="url(#a)">
    <path fill="#346BD5" d="m77 12.4-3 1c.4-1.3.4-2.7 0-4.1-1.3-3.4-4.8-5.4-8-4.3-3.2 1-4.5 3.6-6 10.2-5-4.4-7.6-5.7-10.9-4.6-3.2 1-4.8 4.6-3.7 8a6.7 6.7 0 0 0 2.4 3.4l-3 1a4 4 0 0 0-2.5 5l2.4 7.3c.2.7 1 1 1.7.9l1.2-.4 3.7 11a4 4 0 0 0 5 2.6l27.1-9a4 4 0 0 0 2.5-5l-3.7-11 1.3-.5c.7-.2 1-1 .8-1.6L82 14.8a4 4 0 0 0-5-2.4Zm-14.6 4.5C64.1 9.2 65.2 8 67 7.5c1.8-.6 3.8.5 4.5 2.6.6 2-.3 4.2-2 4.8l-7.2 2.3.1-.3ZM50 13c1.8-.6 3.3-.3 9.3 5l.2.1-7 2.4c-1.8.6-3.9-.6-4.5-2.7-.7-2 .2-4.2 2-4.8Zm14.2 31-8.7 3c-.7.1-1.4-.2-1.6-1l-3.7-11 9.9-3.3L64 44Zm-5-14.8-12.3 4-2-6.1c-.3-.7.1-1.4.8-1.6l11.1-3.7 2.5 7.4Zm12.4 12.4-5 1.6L59.3 21l5-1.7 7.3 22.3Zm12-5.3c.2.7-.2 1.4-.9 1.6l-8.6 2.9L70 28.4l9.9-3.3 3.6 11.2Zm-2-14.5L69.1 26l-2.5-7.4 11.1-3.7c.7-.2 1.5.2 1.7.9l2 6.1Z"/>
  </g>
  <path fill="#CCC" fill-rule="evenodd" d="m21 2.7 3.8 12c-.4.3-.4.7-.2 1.4l.4 1.4a91.1 91.1 0 0 1 1 2.7c.5 2 1 3.8 1.7 5.7.2.7.9 1 1.5.8.4-.2.3-.6.1-.8v-.3l-1.6-5-1-3.4c-.3-.8-.2-1 .7-1l2.9.2a416.8 416.8 0 0 0 5.8.4l7.6.4 4.6.2 5.2.3 9 .5a4841.1 4841.1 0 0 0 14 .8l4.5.3 8.6.5 4.3.2 2.9.2 5.7.3c1 0 1 .2.9 1.1l-.6 3.6-.6 3.2c-.2.8.3 1.2 1 1 .5-.2.5-.5.6-.8v-.1l1.4-8.1c.2-1-.1-1.3-1-1.4l-6.3-.3-2.7-.2-3.1-.2-6.2-.3-6.5-.4-6.5-.3-4.4-.3-5.1-.3-8.5-.4a6262.2 6262.2 0 0 0-11.5-.7 2269.2 2269.2 0 0 1-13.7-.8l-3.2-.2-4-13a.8.8 0 0 0-.9-.6H9.5a.8.8 0 1 0 0 1.7H21Zm24 56.6-3.9.5-2.2.2c-.6 0-.9-.4-1-1l-1.6-5-.7-2.2-.4-1.5a319.1 319.1 0 0 1-1.5-4.6c-.1-.3-.3-.7.3-.9.6-.2 1.1 0 1.4.7l2.6 8.6.6 2 .3 1c.4 1.2.5 1.3 1.8 1.1L51.4 57l10.8-1.2 10-1.1 10-1.2 4.3-.5 10.7-1c.7-.1 1-.4 1.2-1.1l.9-5.2.4-2.4c0-.4.1-.8.7-1 .7 0 1 .2 1 1l-1 5v.1l-.7 4c-.1.7-.6 1-1.2 1l-9.2 1-1.9.3-6.5.7-6.5.8-7.8.8-8.3 1-5.6.6-7.6.8Zm57-28.6h1.9c.2 0 .4 0 .4-.3s-.3-.3-.5-.3h-.4l-2.2-.2-4.4-.1-6.4-.2-10.7-.4-9.4-.4-4.5-.1-5.5-.2-10.4-.4a9370.7 9370.7 0 0 0-22.6-.8c-.3 0-.5 0-.5.3s.2.4.5.4h.4l12.3.5c2.8 0 5.5.2 8.2.3l5 .1 4.5.2 8.2.3 7.4.3 8 .2 2.5.1H86l10.6.5 5.3.2ZM37 44h-1.2l-1.7.2h-.5a58 58 0 0 1-1.1 0c-.3 0-.5 0-.5-.3s.2-.4.5-.4h.1l1.4-.1a1411.5 1411.5 0 0 1 11-.4l9.5-.4 8.1-.3a771.4 771.4 0 0 1 10-.4c3.4 0 6.8-.2 10.2-.4 3 0 5.9-.2 8.8-.3l7.3-.3h2.9c.3 0 .6 0 .6.3 0 .4-.3.4-.6.4h-2.2l-2.3.1c-2 .2-4.2.2-6.3.3l-3.8.1-7.8.3a2357.6 2357.6 0 0 1-11 .4l-9.1.4-10 .3-2.8.1-9.4.4Zm-7.6-15.3c-.7-.1-.8.2-.6.8l2 6.6.8 2.7a185 185 0 0 1 1 3.4c.3.6.9.8 1.5.6.4-.2.3-.5.2-.8v-.2L32.4 36l-2-6.7c-.2-.5-.6-.8-1.1-.7Zm73.2 2.6c.4 0 .7.2.6.7l-1 5.8-.2.9-.1.8c0 .4-.2.6-.6.7-1 .3-1.2 0-1-1l.3-1.5 1-5.4c0-.7.3-1 1-1Zm-64-1.7.1.2L42.5 42c.1.3.2.7.6.5.4-.1.3-.4.2-.7v-.1a6994.5 6994.5 0 0 0-4-12.3c-.1-.2-.3-.3-.5-.2l-.2.4Zm11.7.6V30c0-.2 0-.4.2-.5.3 0 .4.2.5.4l.8 3.4 1.2 5.2.6 2.5v.1l.1.2v.2c0 .2.1.4-.1.5-.4.1-.5-.2-.6-.5L51 33l-.7-2.8Zm-2.6 25.7v-.2l-1-2.7-2.5-8c0-.4-.2-.7-.5-.6-.3.1-.2.4-.2.7a5969.6 5969.6 0 0 0 3.6 11c0 .2.2.3.4.2.2 0 .2-.2.2-.4ZM63.3 41l-1-7-.6-3.6v-.2c0-.2 0-.4.3-.4s.4.2.5.5l.4 3 1 7.4.1.4c0 .2 0 .4-.2.5-.2 0-.4-.1-.4-.3l-.1-.3Zm-6.4 13.7v-.2l-.3-1a5059.5 5059.5 0 0 0-2.3-9.3c0-.2-.2-.3-.4-.2-.2 0-.2.2-.2.4v.4l.7 2.7 1.5 6.3c0 .4.2.8.4 1.2 0 .2.2.3.4.2.2 0 .2-.2.2-.4ZM73 31.1c0 1.1 0 2.2.2 3.3v6.3c0 .2.1.5-.2.5-.4 0-.4-.3-.4-.5v-.1a51.7 51.7 0 0 1-.2-4.7 28 28 0 0 0-.1-5c0-.2 0-.5.4-.6.4 0 .4.4.3.7v.1Zm-7.3 21.6-.3-2.4-1-6v-.1c0-.3 0-.6-.4-.6-.3 0-.3.4-.3.6l1.4 9.6c0 .2.1.6.5.5.2 0 .2-.3.2-.5l-.1-1.1Zm18-22c.2 0 .2.2.2.4v.3l-.4 3.8-.7 5v.4c-.1.2-.2.4-.5.3-.2 0-.2-.3-.2-.4l.1-1.3.6-5 .3-2.6v-.4h.1c0-.3.1-.6.4-.6ZM73.4 50.4h-.1v-6.6c0-.2 0-.6-.4-.6s-.4.3-.4.6V45c.2 1.5.1 3 .1 4.6V52l.1.5v.3c0 .3 0 .6.4.6s.3-.4.3-.7v-2.3Zm-35-24v.1l-.1.4h-.5l-.3-.6-1.2-3.9-1.2-4-.1-.4c0-.1-.1-.3.1-.4.2-.1.4 0 .5.2L36 19l1.7 5.4a3548.8 3548.8 0 0 0 .6 2ZM92.2 40c0 .3 0 .5.3.6.3 0 .3-.3.4-.5V40a541.8 541.8 0 0 0 1.6-8.3c0-.2.1-.5-.2-.6-.3 0-.4.2-.5.5a18.5 18.5 0 0 0-.2 1l-.3 1.4-1.1 5.8v.2ZM81 52.6c-.4 0-.4-.3-.3-.5v-.2l.4-3.7.6-4.6c0-.3 0-.6.4-.6s.4.4.3.7l-1 8.2v.1c0 .3 0 .7-.4.6ZM50.3 27v-.1l-.1-.6-1.8-7.4c-.1-.2-.2-.6-.5-.5-.4 0-.3.4-.2.6v.1l1.8 7.5c0 .2 0 .4.2.6 0 .2.2.3.4.3.2-.1.2-.3.2-.5Zm40 24.6c-.2 0-.2-.2-.2-.4l.3-1.7.5-2.4.3-1.8.4-1.8V43c.2-.3.3-.5.6-.4.3 0 .3.3.2.5a3342.6 3342.6 0 0 1-1.6 8.2c-.1.2-.3.4-.5.3ZM61.7 24.8l-.8-5.2c0-.2 0-.5-.4-.5s-.3.4-.3.6l1.1 7.5c0 .3 0 .6.4.6.3 0 .3-.3.3-.5v-.1c0-.8-.2-1.6-.3-2.3Zm11.2-1.7v4.6c0 .3 0 .5-.2.5-.4 0-.4-.2-.4-.5-.2-2.5-.2-5-.2-7.4 0-.3 0-.6.3-.5.3 0 .3.2.3.4v.1c.2 1 .2 1.9.2 2.8Zm21.6 5.3c0 .4 0 .6.3.6.4 0 .4-.3.5-.6l1.3-6.6v-.1c0-.3 0-.5-.2-.6-.4-.1-.5.3-.5.5l-.7 3.2v.6l-.5 2-.2 1Zm-9.6-8c.3.1.3.3.3.5v.3l-.2 1.6a1267.1 1267.1 0 0 1-.7 5.3c0 .2 0 .5-.4.5s-.3-.5-.3-.7l.5-4.4.2-1.4V22l.1-.9c0-.3.1-.7.5-.6Z" clip-rule="evenodd"/>
  <path fill="#346BD5" d="M.7 1.9C.7.9 1.5.2 2.4.2h10a1.7 1.7 0 1 1 0 3.3h-10C1.4 3.5.7 2.8.7 2Z"/>
  <defs>
    <clipPath id="a">
      <path fill="#fff" d="M37.5 13 77 0l13 39.6-39.6 13z"/>
    </clipPath>
  </defs>
</svg>