<svg xmlns="http://www.w3.org/2000/svg" fill="none" viewBox="0 0 144 60">
  <path stroke="#E6E6E6" stroke-dasharray="4 4" stroke-linecap="round" stroke-width="2" d="M135 30H67.2m0-12.6v7.4m-3.7-7.4h-7.4m7.4 24.3h-7.4m11.1-7.4v7.4"/>
  <path fill="#E6E6E6" d="M91.8 15a3 3 0 0 1 2.8 0l5.3 2.8 5.2 3.2a3 3 0 0 1 1.4 2.5l.2 6-.2 6.1c0 1-.5 2-1.4 2.5l-5.2 3.1-5.3 3a3 3 0 0 1-2.8 0l-5.4-3-5.1-3.1a3 3 0 0 1-1.5-2.5l-.1-6 .1-6.1c0-1 .6-2 1.5-2.5l5.1-3.2 5.4-2.9Zm34.9 0a3 3 0 0 1 2.9 0l5.3 2.8 5.2 3.2a3 3 0 0 1 1.4 2.5l.2 6-.2 6.1c0 1-.6 2-1.4 2.5l-5.2 3.1-5.3 3a3 3 0 0 1-2.9 0l-5.3-3-5.2-3.1a3 3 0 0 1-1.4-2.5l-.2-6 .2-6.1c0-1 .6-2 1.4-2.5l5.2-3.2 5.3-2.9Z"/>
  <circle cx="93.2" cy="29.5" r="10.1" fill="#346BD5"/>
  <circle cx="128.1" cy="29.5" r="10.1" fill="#346BD5"/>
  <path fill="#fff" d="M90.2 28.8v-1.4h6v1.4h-6Zm0 3v-1.5h6v1.4h-6Zm37.6 3.7V23.9h.8v11.6h-.8Zm2.1-7.9c0-.4-.2-.7-.5-1a2 2 0 0 0-1.2-.2l-.9.1-.6.4a1 1 0 0 0 0 1.2l.3.3.5.3.6.1.9.2 1 .4.8.5.7.8.2 1c0 .6-.2 1-.4 1.4a3 3 0 0 1-1.2 1c-.5.2-1.2.3-2 .3-.6 0-1.3 0-1.8-.3-.5-.2-1-.5-1.2-1-.3-.4-.5-1-.5-1.5h1.6c0 .3.2.6.3.8l.7.5 1 .1 1-.1.6-.5.2-.7c0-.2 0-.4-.2-.6-.1-.2-.3-.3-.6-.4l-.8-.3-1.1-.3a5 5 0 0 1-1.8-.8 2 2 0 0 1-.7-1.6c0-.6.2-1 .5-1.5a3 3 0 0 1 1.2-1c.5-.2 1-.3 1.7-.3a4 4 0 0 1 1.8.4c.4.2.8.5 1.1 1 .3.3.5.8.5 1.3h-1.7Z"/>
  <rect width="53" height="13.8" x="1" y="11.5" fill="#E6E6E6" stroke="#346BD5" stroke-dasharray="2 2" rx="1.5"/>
  <rect width="53" height="13.8" x="1" y="34.8" fill="#E6E6E6" stroke="#346BD5" stroke-dasharray="2 2" rx="1.5"/>
</svg>