<svg xmlns="http://www.w3.org/2000/svg" fill="none" viewBox="0 0 75 60">
  <g clip-path="url(#a)">
    <path fill="#346BD5" d="M74.8 5.6V0H45c-2 0-3.7 1.7-3.7 3.8v39.9L1 54.5a1 1 0 0 0-.6 1.2l1 3.6c0 .5.6.8 1 .7l46.4-12.5c.3 7 6 12.5 13 12.5a13 13 0 0 0 13-13.1A13 13 0 0 0 50 41.3h-3V5.5h27.8Zm-13 33.8a7.5 7.5 0 0 1 0 15 7.5 7.5 0 0 1-7.4-7.5c0-4.2 3.3-7.5 7.4-7.5ZM6.2 44c.2 1 1.3 1.6 2.3 1.3l25.2-6.8c1-.2 1.5-1.3 1.3-2.3l-5.8-21.7c-.3-1-1.3-1.6-2.3-1.3l-9 2.4-3.2.9-2 .5-2 .6-9 2.4c-1 .3-1.6 1.3-1.3 2.3L6.2 44Z"/>
    <path fill="#CCC" d="M74.8 5.6V0H45c-2 0-3.7 1.7-3.7 3.8v39.9L1 54.5a1 1 0 0 0-.6 1.2l1 3.6c0 .5.6.8 1 .7l46.4-12.5c.3 7 6 12.5 13 12.5a13 13 0 0 0 13-13.1A13 13 0 0 0 50 41.3h-3V5.5h27.8Zm-13 33.8a7.5 7.5 0 0 1 0 15 7.5 7.5 0 0 1-7.4-7.5c0-4.2 3.3-7.5 7.4-7.5Z"/>
  </g>
  <defs>
    <clipPath id="a">
      <path fill="#fff" d="M.3 0h74.5v60H.3z"/>
    </clipPath>
  </defs>
</svg>