<svg xmlns="http://www.w3.org/2000/svg" fill="none" viewBox="0 0 86 60">
  <g fill="#346BD5" clip-path="url(#a)">
    <path d="M17.9 19.9c0-1.1.1-2.2.4-3.3l.6-2.1.5-1.5.5-1.3.5-1.5c.1-.2 0-.3-.2-.3h-2c-.2-.1-.3 0-.4.2a171.4 171.4 0 0 0-2 4.4l-.7 2-.6 1.6c0 .2 0 .5-.2.7l-.4 2a4 4 0 0 0-.1 1.9c0 .3.2.5.3.8.2.2.1.5-.2.7a2 2 0 0 1-1.7 0 2 2 0 0 1-.9-1.3v-2c.3-1.8.8-3.5 1.4-5.1 0-.4.2-.7.3-1 .1-.2 0-.5-.1-.7a28.7 28.7 0 0 0-5-4.2c-.3-.2-.4-.4-.4-.8l.1-.9c.3-.6.8-.7 1.4-.7h2.6l2.4-.2h2l.3-.3.1-.2c.3-.6.9-.8 1.4-.4l.6.6.5.2c.8 0 1.6 0 2.3-.2l2.5-.2c.6 0 1.1-.2 1.7-.4.4-.1.8-.3 1.1-.7.3-.3.7-.2.8.2l.1.3a2.1 2.1 0 0 1-.4 2.4c-.8.6-1.7.9-2.7 1l-1 .1-.2.3-.9 2.1-.7 2-.6 1.4v.2h.2l.3-.3a7 7 0 0 1 1.6-1.7l1-.5c1 0 2 .8 1.6 1.9l-1 2.7a32.7 32.7 0 0 0-.8 2.5v.2h.3l.4-.5c.4-.6.8-1.1 1-1.7.3-.3.4-.8.5-1.2a7 7 0 0 1 2.5-3.7c1.2-1 2.5-.4 3.2.6l.3.6c0 .3.2.5.4.6l.6.6c.3.3.3.6.2 1l-.7 1.6-.5 1.8.1.3.4-.1.3-.5 1.4-2.4.2-.7a33.5 33.5 0 0 1 1.7-3.7c.2-.2.4-.3.7-.2.6.2 1.1.6 1.4 1.3 0 .2.1.3.3 0l1.1-.8c.8-.5 1.4-.5 2 0 .4.3.5.7.5 1.2l-.7 1.8-1.2 3-.3 1v.2c.2.1.3 0 .4 0l.2-.2 1.2-1.8c.3-.4.4-.8.5-1.3v-.5l.5-1.9.5-1.5.3-1a27 27 0 0 1 2-4.4c.2-.2.5-.3.7 0 .5.4.8 1 .8 1.6 0 .4-.3.8-.4 1.2l-1 2.2-.3 1s-.1.2 0 .2l.3-.1.4-.4 1-.7c.9-.5 1.9.1 2 1 .2 1-.2 1.7-.7 2.4a5.4 5.4 0 0 1-3 1.8l-.1.3.2.9c.3.7.5 1.3 1 1.9.4.6.9 1 1.6 1.4l.5.2h.5c.3.1.4.5.2.7-.6.5-1.1 1-1.9 1-.6.1-1.1-.1-1.6-.5V24l-.7-1a5 5 0 0 1-.8-1.8c-.1-.4-.3-.7-.3-1.1 0-.2-.1-.4-.3-.3-.2 0-.2.2-.2.3l.1 1.3v.5c0 .2 0 .3-.2.4-.2.1-.3 0-.4 0l-.5-.5c-.3-.2-.5-.4-.5-.8 0-.2 0-.3-.2-.4-.2 0-.3.1-.4.3a5.8 5.8 0 0 1-1.5 1.3c-.7.4-1.3.2-1.8-.4a2 2 0 0 1-.4-1.3l.3-2 .6-2v-.3l-.2.1-.3.2-1.5 2.5-1.4 2.8c-.2.4-.5.5-.8.3-.3-.2-.5-.5-.6-.8 0-.2 0-.3-.2-.3-.1 0-.2 0-.3.2l-.6.7c-.6 1-2 .6-2.6-.1l-.3-.6c0-.2-.1-.2-.3 0l-1 .8c-.4.2-.8.5-1.3.5s-1-.3-1.3-.8l-.4-.7c0-.2-.2-.3-.4-.2l-.1.2-.7.8c-.6.7-1.8.6-2.4-.1-.4-.6-.4-1.2-.4-1.9l.1-.8.2-.7.2-.6c0-.2 0-.5.2-.7v-.5l-.3.1-.6.9-1.5 2.7c-.2.3-.2.6-.2 1v1c0 .4-.2.4-.5.3a2 2 0 0 1-1.1-1.5c-.1-.4-.2-.8-.1-1.2Zm12.6-4.6V15c0-.2 0-.3-.2-.4l-.4.1-.2.2-1 1.7L28 19c-.2.5-.5 1-.6 1.6 0 .2 0 .4.2.5.1.1.3 0 .5-.1.7-.7 1.4-1.4 2-2.3l.2-.4v-1.5c.2-.4.3-1 .3-1.4ZM12.4 9.6h-1.7l.1.4a43.3 43.3 0 0 1 2.4 3c.2.1.4 0 .5-.2l.6-1.4.5-1.3c.1-.4 0-.5-.3-.5h-2.1ZM47 14.9c0-.1-.1 0-.2 0l-1.1 1v.3c0 .1.1 0 .2 0 .4-.3.8-.7 1-1.1l.1-.2ZM60 19c.1-1 .2-1.9.5-2.7.2-.4.4-.5.7-.5h.1c.4 0 .5 0 .5-.4.2-.8.5-1.5 1-2 .8-.7 1.6-1 2.6-.8.6 0 1 .4 1.4.8 1 1.1 1.1 2.4.8 3.8l-.1.7v.2h.3c0-.2.1-.2.2-.3l.7-1c.2-.1.3-.3.4-.6l.5-1.5.5-1c.2-.6.6-.7 1-.3l.7.5c.4.3.4.7.3 1.1l-.5 1.2c-.5 1-.9 2-1.1 3.1v.8h.4l.8-.8a20.4 20.4 0 0 0 2-3.8l.7-1.8c.2-.4.6-.6 1-.4.4.2.8.4 1 .9.1.2.2.4 0 .6l-.5 1.1-.9 2.5c0 .6-.3 1.1-.3 1.7v.3h.3l.3-.4 1.7-2.4a4.8 4.8 0 0 1 1.1-1.2c.1 0 .3-.1.4 0v.3l-.2.5c-.4 1-1 2-1.5 2.9a7 7 0 0 1-1.8 2c-.4.2-.8.3-1.2.2-.6-.1-1-.6-1.1-1l-.2-.5c0-.2-.2-.3-.4-.1l-.4.6a3 3 0 0 1-1.2.8c-.4.2-.7.1-1.1 0a2.3 2.3 0 0 1-1.3-2.2v-.3c-.2-.1-.3 0-.4.1a3 3 0 0 1-1.1.6c-.3 0-.5.3-.7.5-.5.5-1 1-1.7 1.3-1.2.4-2.7.2-3.5-1a4 4 0 0 1-.6-1.5v-.7Zm5.7-3.6V15c0-.7-.6-1-1.2-.8-.5.2-.8.7-1 1.1-.2.8-.1 1.5 0 2.2 0 .6.3 1.1.9 1.4.3.2.5.2.6-.2l.3-.9c.3-.7.5-1.5.4-2.4Zm-2.6 5.2.6-.1c.2 0 .2-.1 0-.3l-1-1-.2-.2h-.2c0 .5 0 .9.2 1.3l.6.3ZM51.5 26v-.5l.1-.1a66.5 66.5 0 0 0 1.2.2h.3c.4-.2.8-.5 1-.9a12.8 12.8 0 0 0 1.6-2.5V22h-.5c-.6.5-1.7.3-2-.3a3 3 0 0 1-.6-1.5 26.4 26.4 0 0 1 2-6.7c.2-.6.7-.7 1.1-.3l.5.5c.5.3.5.7.3 1.1l-.5 1-.4 1.2c-.4.8-.6 1.7-.8 2.6l-.2.8c0 .3.1.3.3.2a4 4 0 0 0 1-1l1.5-2.3c.2-.3.2-.7.3-1l.5-2 .1-.7c.1-.5.5-.7 1-.5.3 0 .6.3.8.5.3.2.4.6.3 1l-.7 2.4-.6 2.1-.8 2.7-.6 1.4-.3.7c-.2.6-.4 1.1-.8 1.5l-1 1.3-1 .8-.7.1c-.5.2-1 0-1.4 0l-.8-.6c-.2-.2-.2-.4-.2-.6V26Z"/>
  </g>
  <path fill="#F3F3F3" d="m8.4 30.7-2.8-1.2v23.8l2.8 1.2 2.7-1.2 2.5 1.2 2.9-1.2 2.5 1.2 2.8-1.2 2.5 1.2 2.7-1.2 2.8 1.2 2.5-1.2 2.7 1.2 2.7-1.2 2.6 1.2 2.6-1.2 2.8 1.2 2.6-1.2 2.8 1.2 2.6-1.2 2.6 1.2 2.7-1.2 2.7 1.2 2.7-1.2 2.6 1.2 2.7-1.2 2.7 1.2 2.6-1.2 2.6 1.2 2.8-1.2V29.5l-2.8 1.2-2.6-1.2-2.6 1.2-2.7-1.2-2.7 1.2-2.6-1.2-2.7 1.2-2.7-1.2-2.7 1.2-2.6-1.2-2.6 1.2-2.8-1.2-2.6 1.2-2.8-1.2-2.6 1.2-2.6-1.2-2.7 1.2-2.7-1.2-2.5 1.2-2.8-1.2-2.7 1.2-2.5-1.2-2.8 1.2-2.5-1.2-2.9 1.2-2.5-1.2-2.7 1.2Z"/>
  <path fill="#346BD5" fill-rule="evenodd" d="M31.7 41.2v.4c0 .3 0 .6.2.9l.6.6 1 .2c.3 0 .6 0 .8-.2l.6-.6c.2-.3.2-.6.2-.9v-.4c0-.3 0-.6-.2-.8l-.5-.7-1-.2c-.3 0-.6 0-.9.2l-.6.7-.2.8Zm1.1.4v-.4c0-.2 0-.3.2-.5 0-.2.2-.2.4-.2.3 0 .4 0 .5.2l.1.5v.4l-.1.5c0 .2-.2.3-.5.3-.2 0-.4-.1-.4-.3a1 1 0 0 1-.2-.5Zm-5-4.8v.4c0 .3 0 .6.2.9a1.6 1.6 0 0 0 1.5.8c.3 0 .6 0 .9-.2l.6-.6.2-.9v-.4c0-.3 0-.6-.2-.8l-.6-.7-1-.2c-.3 0-.6 0-.8.2-.3.2-.5.4-.6.7-.2.2-.2.5-.2.8Zm1 .4v-.4l.2-.5c.1-.2.3-.2.5-.2s.4 0 .4.2l.2.5v.4c0 .2 0 .4-.2.5 0 .2-.2.3-.4.3s-.4-.1-.5-.3a1 1 0 0 1-.1-.5Zm4.8-1.8L28.3 43h1l5.2-7.7h-1Zm14 1.6c0-.2 0-.4-.2-.5-.2-.2-.4-.2-.7-.2H46l-.3.3v.6l.2.2.3.2h.3l.6.2.7.2.5.4a1.5 1.5 0 0 1 .5 1.1c0 .4 0 .7-.2 1l-.8.6-1.3.2-1.2-.2-.8-.7a2 2 0 0 1-.3-1h1.2c0 .1 0 .3.2.4 0 .2.2.3.4.3l.5.1h.6l.3-.3.2-.4-.1-.3-.4-.3-.5-.1-.7-.2c-.5-.1-.9-.3-1.1-.6-.3-.2-.5-.6-.5-1 0-.3.1-.7.3-1l.8-.5a2.4 2.4 0 0 1 2.3 0c.3.1.6.3.8.6.2.2.2.6.3.9h-1.2Zm-10.5 4.2h2.1a3 3 0 0 0 1.6-.4c.4-.2.7-.5 1-1 .2-.4.3-1 .3-1.6 0-.6-.1-1-.3-1.5-.3-.5-.6-.8-1-1-.4-.3-1-.4-1.5-.4H37v5.9Zm2-1h-.7v-3.8h.8c.4 0 .7 0 1 .2.2.1.4.3.5.6l.2 1c0 .5 0 .8-.2 1.1-.1.3-.3.5-.6.6a2 2 0 0 1-1 .2Zm4.8 1v-5.9h-1.3v5.9H44Zm9.4-3.8h1.2c0-.4 0-.7-.2-1l-.6-.6-.8-.4a3 3 0 0 0-2.3.2c-.4.2-.7.6-1 1-.2.5-.4 1-.4 1.7 0 .6.2 1.1.4 1.6.2.4.6.8 1 1 .4.3.9.4 1.4.4.4 0 .7 0 1-.2a2.4 2.4 0 0 0 1.3-1.1l.2-.8h-1.2a1.2 1.2 0 0 1-.4.7l-.4.2a1.6 1.6 0 0 1-1.3-.1l-.5-.7-.2-1c0-.5 0-.8.2-1 .1-.4.3-.6.5-.7.2-.2.5-.3.8-.3l.5.1.4.2.2.3.2.5Zm7.1.9c0 .6-.1 1.1-.3 1.6-.3.4-.6.8-1 1-.4.3-1 .4-1.4.4-.6 0-1-.1-1.4-.4a2 2 0 0 1-1-1 3 3 0 0 1-.4-1.6c0-.7.1-1.2.4-1.7a2 2 0 0 1 1-1c.4-.3.8-.4 1.4-.4.5 0 1 .1 1.4.4.4.2.7.6 1 1 .2.5.3 1 .3 1.7Zm-1.2 0-.2-1.1a1 1 0 0 0-.5-.6c-.3-.2-.5-.3-.8-.3-.3 0-.6.1-.8.3a1 1 0 0 0-.5.6c-.2.3-.2.6-.2 1 0 .5 0 .8.2 1.1 0 .3.3.5.5.7l.8.2.8-.2.5-.7.2-1Zm6.6-3h-1.2V39c0 .2 0 .4-.2.6a1 1 0 0 1-.4.4l-.6.2c-.3 0-.5 0-.7-.2a1 1 0 0 1-.4-.4l-.1-.6v-3.7h-1.3v3.8c0 .5.1.8.3 1.2.2.3.5.5.9.7.4.2.8.3 1.3.3s.9-.1 1.2-.3c.4-.2.7-.4.9-.7.2-.4.3-.7.3-1.2v-3.8Zm5.5 5.9h-1l-2.6-3.7v3.7h-1.3v-5.9h1.1L70 39v-3.7h1.3v5.9Zm.4-5.9v1h1.8v4.9h1.3v-4.9h1.8v-1h-4.9ZM19.5 47.5a5 5 0 0 0 2.7.8c1 0 2-.2 2.7-.8.7-.5 1.3-1.2 1.7-2.2a9 9 0 0 0 .6-3.4c0-1.4-.2-2.5-.6-3.5-.4-1-1-1.7-1.7-2.2-.8-.5-1.6-.7-2.7-.7a5 5 0 0 0-2.7.7c-.7.5-1.3 1.3-1.7 2.2-.4 1-.6 2.1-.6 3.5a9 9 0 0 0 .6 3.4c.4 1 1 1.7 1.7 2.2Zm4.4-2.4c-.4.7-1 1-1.7 1-.4 0-.9-.1-1.2-.4a3 3 0 0 1-.8-1.5c-.2-.6-.3-1.4-.3-2.3 0-1.4.2-2.5.6-3.2.5-.7 1-1 1.7-1 .5 0 .9.1 1.2.4.4.3.7.8.9 1.4.2.6.2 1.4.2 2.4 0 1.4-.2 2.5-.6 3.2Zm-8 3V35.6h-2.5l-3 2v2.2l2.8-1.7V48H16Zm31.8-1c.2-.4.3-1 .3-1.6 0-.6 0-1.2-.3-1.6a2.5 2.5 0 0 0-2.4-1.4 2.5 2.5 0 0 0-2.3 1.3c-.2.5-.4 1-.4 1.7 0 .6.2 1.2.4 1.6a2.6 2.6 0 0 0 2.3 1.4c.6 0 1 0 1.4-.3l1-1Zm-1-2.7c.2.3.3.7.3 1.1l-.2 1.1-.6.7c-.3.2-.5.3-.9.3-.3 0-.6-.1-.8-.3-.3-.1-.4-.4-.6-.7l-.2-1c0-.5 0-1 .2-1.2.2-.3.3-.6.6-.7.2-.2.5-.3.8-.3.4 0 .6.1.9.3l.6.7Zm-7.1 2.8L38 42.6h-1l2 5.8h1.4l2-5.8h-1.1l-1.6 4.6Zm13.2-4.6h1v3.8c0 .4 0 .8-.3 1.1a2 2 0 0 1-.8.8l-1.3.2c-.4 0-.9 0-1.2-.2a2 2 0 0 1-.9-.8 2 2 0 0 1-.3-1v-4h1.1v3.8c0 .3 0 .5.2.7 0 .2.2.3.4.4l.7.2c.3 0 .5 0 .7-.2.2 0 .4-.2.5-.4l.2-.7v-3.7Zm6.1 2H60c0-.4-.1-.7-.3-1l-.5-.6-.8-.4a3 3 0 0 0-2.3.2l-1 1c-.2.5-.3 1-.3 1.7 0 .6.1 1.2.4 1.6a2.5 2.5 0 0 0 2.3 1.4l1-.1a2.4 2.4 0 0 0 1.3-1.1l.2-.8h-1a1.3 1.3 0 0 1-1 1 1.7 1.7 0 0 1-1.3-.2c-.3-.1-.4-.3-.6-.7l-.2-1c0-.5 0-1 .2-1.2.1-.3.3-.6.6-.7.2-.2.5-.3.8-.3l.5.1a1.3 1.3 0 0 1 1 1Zm2-2h1.2V45h2.7v-2.5h1v5.8h-1V46H62v2.4h-1v-5.8Zm10 0H67v5.8h3.9v-.8H68V46h2.5v-1H68v-1.5h2.7v-1Zm1 0h2.2c.5 0 .9 0 1.2.2l.7.7.2 1c0 .3 0 .7-.2 1a1.6 1.6 0 0 1-.9.6l1.3 2.3h-1.2l-1.1-2.1H73v2.1h-1v-5.8Zm2 2.8h-1v-2h1l.7.2c.2 0 .3.2.4.3l.1.5-.1.6-.4.3-.6.1Z" clip-rule="evenodd"/>
  <path fill="#E6E6E6" fill-rule="evenodd" d="m1.2 59.9.7-1.7h1V60h-1l-.7-.1Zm82 .1v-1.8h.9l.7 1.7-.7.1h-1Zm2.7-57.2h-1.8v-1l1.7-.7.1.7v1ZM3 0H2l-.7.1.7 1.7-1.7-.7-.1.7v1H2v-1h1V0ZM.2 58.9l1.7-.7v-1H.1v1l.1.7Zm-.1-3.6h1.8v-1.8H.1v1.8Zm0-3.7h1.8v-1.9H.1v1.9Zm0-3.8h1.8V46H.1v1.8Zm0-3.7h1.8v-1.9H.1v1.9Zm0-3.8h1.8v-1.9H.1v2Zm0-3.7h1.8v-2H.1v2Zm0-3.8h1.8V31H.1v2Zm0-3.7h1.8v-2H.1v2Zm0-3.8h1.8v-1.9H.1v2Zm0-3.7h1.8v-2H.1v2Zm0-3.8h1.8v-1.9H.1v1.9ZM0 14h1.8v-1.8H.1V14Zm0-3.7h1.8V8.4H.1v1.9Zm0-3.8h1.8V4.7H.1v1.8ZM4.7 0v1.8h1.9V0H4.7Zm3.8 0v1.8h1.8V0H8.5Zm3.7 0v1.8H14V0h-2Zm3.7 0v1.8h1.9V0h-1.9Zm3.8 0v1.8h1.8V0h-1.8Zm3.7 0v1.8h1.9V0h-1.9Zm3.7 0v1.8H29V0h-1.9ZM31 0v1.8h1.8V0H31Zm3.7 0v1.8h1.9V0h-1.9Zm3.7 0v1.8h1.9V0h-1.9Zm3.8 0v1.8H44V0h-1.8Zm3.7 0v1.8h1.9V0h-1.9Zm3.7 0v1.8h1.9V0h-1.9Zm3.8 0v1.8H55V0h-1.8ZM57 0v1.8h1.9V0H57Zm3.7 0v1.8h1.9V0h-1.9Zm3.8 0v1.8h1.8V0h-1.8Zm3.7 0v1.8h1.9V0h-1.9ZM72 0v1.8h2V0h-2Zm3.8 0v1.8h1.8V0h-1.8Zm3.7 0v1.8h1.9V0h-1.9Zm3.7 0v1.8h1l.7-1.7L84 0h-1ZM86 4.7h-1.8v1.8H86V4.7Zm0 3.7h-1.8v1.9H86V8.4Zm0 3.8h-1.8V14H86v-1.8Zm0 3.7h-1.8v1.9H86v-1.9Zm0 3.8h-1.8v1.9H86v-2Zm0 3.7h-1.8v2H86v-2Zm0 3.8h-1.8V29H86v-2Zm0 3.7h-1.8v2H86v-2Zm0 3.8h-1.8v1.9H86v-2Zm0 3.7h-1.8v2H86v-2Zm0 3.8h-1.8v1.9H86v-1.9Zm0 3.8h-1.8v1.8H86V46Zm0 3.7h-1.8v1.9H86v-1.9Zm0 3.8h-1.8v1.8H86v-1.8Zm0 3.7h-1.8v1l1.7.7.1-.7v-1ZM81.3 60v-1.8h-1.9V60h1.9Zm-3.8 0v-1.8h-1.8V60h1.8Zm-3.7 0v-1.8H72V60h2Zm-3.7 0v-1.8h-1.9V60h1.9Zm-3.8 0v-1.8h-1.8V60h1.8Zm-3.7 0v-1.8h-1.9V60h1.9Zm-3.7 0v-1.8H57V60h1.9ZM55 60v-1.8h-1.8V60H55Zm-3.7 0v-1.8h-1.9V60h1.9Zm-3.7 0v-1.8h-1.9V60h1.9Zm-3.8 0v-1.8H42V60h1.8Zm-3.7 0v-1.8h-1.9V60h1.9Zm-3.7 0v-1.8h-1.9V60h1.9Zm-3.8 0v-1.8H31V60h1.8ZM29 60v-1.8h-1.9V60H29Zm-3.7 0v-1.8h-1.9V60h1.9Zm-3.8 0v-1.8h-1.8V60h1.8Zm-3.7 0v-1.8h-1.9V60h1.9ZM14 60v-1.8h-2V60h2Zm-3.8 0v-1.8H8.5V60h1.8Zm-3.7 0v-1.8H4.7V60h1.9Z" clip-rule="evenodd"/>
  <defs>
    <clipPath id="a">
      <path fill="#fff" d="M7.5 5.5h71v22.2h-71z"/>
    </clipPath>
  </defs>
</svg>