<svg xmlns="http://www.w3.org/2000/svg" data-name="Yoast" viewBox="0 0 200 200" class="yoast-ad-logo-svg">
  <defs>
    <radialGradient id="yoastad-b" cx="116.4" cy="44" r="36.6" fx="116.4" fy="44" gradientUnits="userSpaceOnUse">
      <stop offset="0" stop-color="#9fda4f"/>
      <stop offset="1" stop-color="#77b227"/>
    </radialGradient>
    <radialGradient id="yoastad-c" cx="92.1" cy="114.7" r="29.3" fx="92.1" fy="114.7" gradientUnits="userSpaceOnUse">
      <stop offset="0" stop-color="#fec228"/>
      <stop offset=".2" stop-color="#fbb81e"/>
      <stop offset="1" stop-color="#f49a00"/>
    </radialGradient>
    <radialGradient id="yoastad-d" cx="60.5" cy="156.7" r="14.3" fx="60.5" fy="156.7" gradientUnits="userSpaceOnUse">
      <stop offset="0" stop-color="#ff4e47"/>
      <stop offset="1" stop-color="#ed261f"/>
    </radialGradient>
    <linearGradient id="yoastad-a" x1="-7.7" x2="218.2" y1="60" y2="143.9" gradientUnits="userSpaceOnUse">
      <stop offset=".2" stop-color="#5d237a"/>
      <stop offset=".4" stop-color="#7c2072"/>
      <stop offset=".7" stop-color="#9a1e6b"/>
      <stop offset=".9" stop-color="#a61e69"/>
    </linearGradient>
  </defs>
  <path fill="url(#yoastad-a)" d="M200 200H32a32 32 0 0 1-32-32V32A32 32 0 0 1 32 0h136a32 32 0 0 1 32 32v168Z"/>
  <path fill="url(#yoastad-b)" d="M156.4 26.6a36.6 36.6 0 1 0-36 63.7 36.6 36.6 0 0 0 36-63.7"/>
  <path fill="url(#yoastad-c)" d="M119.4 102.8v-.1a23.9 23.9 0 1 0-23.6 41.6c11.5 6.5 0 0 0 0a23.9 23.9 0 0 0 23.7-41.5"/>
  <path fill="url(#yoastad-d)" d="M86 163.8c0-5-2.7-9.9-7.4-12.5a14.3 14.3 0 0 0-7-1.9 14.4 14.4 0 1 0 14.3 14.4"/>
  <path fill="#fff" d="M29.5 137v13c8-.3 14.4-3 19.7-8.4s10.2-14.2 15-27.2L98.6 22H81.9L54.1 99.2 40.3 55.8H25L45.3 108a21.4 21.4 0 0 1 0 15.6c-2 5.3-5.7 11.5-15.8 13.4Z"/>
  <path fill="#cd82ab" d="M172.2 175.2h-33.6v2.9h33.6v-3Zm-9-11.7-7.8-14.2-7.7 14.2-11.9-8.4 2.8 19h33.6l2.8-19-11.9 8.4Z"/>
</svg>